<svg xmlns="http://www.w3.org/2000/svg" viewBox="0 0 500 500"><g id="freepik--Floor--inject-10"><ellipse id="freepik--floor--inject-10" cx="250" cy="350.19" rx="243.71" ry="135.5" style="fill:#f5f5f5"></ellipse></g><g id="freepik--Shadows--inject-10"><path id="freepik--Shadow--inject-10" d="M199.72,378.13c-10.5-6.07-25.1-8.28-38.64-6.69l2.92-1.69,15.63-9.14a1.27,1.27,0,0,0,0-2.4L96.1,310A4.6,4.6,0,0,0,92,310L29.43,346.07a1.27,1.27,0,0,0,0,2.4L113,396.69a4.6,4.6,0,0,0,4.15,0l4-2.17,6.73-3.89c-2.74,7.81,1.13,16.23,11.61,22.29,16.64,9.61,43.63,9.61,60.27,0S216.36,387.73,199.72,378.13Z" style="fill:#e0e0e0"></path><path id="freepik--shadow--inject-10" d="M446,359.65l-87.53-50.53a4.54,4.54,0,0,0-4.15,0L270.6,357.44a1.27,1.27,0,0,0,0,2.4l17,9.84L262.94,384a1.24,1.24,0,0,0,0,2.35l49.42,28.53a4.49,4.49,0,0,0,4.07,0l24.73-14.27,17,9.82a4.62,4.62,0,0,0,4.16,0L446,362.05A1.27,1.27,0,0,0,446,359.65Z" style="fill:#e0e0e0"></path><path id="freepik--shadow--inject-10" d="M451,325.3c-1.88-5.9-6.52-10.36-11.76-13.39s-11.56-4.16-17.36-4.64a58.94,58.94,0,0,0-14.53.6c-4.74.78-9,2.63-13.55,4.22-6.69,2.36-13.62,4.87-18.64,9.88a11.21,11.21,0,0,0-3.24,5.18c-1.57,6.61,7.54,8.09,12.22,9a122.32,122.32,0,0,0,13.06,1.78c4.73.38,9.08,2,13.48,3.79a45.67,45.67,0,0,1,12.6,7.79c5.58,4.87,12.51,15.29,21.21,11.78a14.87,14.87,0,0,0,7.71-8.14c3.12-7.31,1.81-15.7,0-23.43C451.84,328.28,451.48,326.78,451,325.3Z" style="fill:#e0e0e0"></path><path id="freepik--shadow--inject-10" d="M231.75,234.67c-8,4.65-8,12.18,0,16.83s21.09,4.64,29.14,0,8-12.18,0-16.83S239.8,230,231.75,234.67Z" style="fill:#e0e0e0"></path></g><g id="freepik--Shelves--inject-10"><g id="freepik--Shelf--inject-10"><polygon points="142.82 140.77 114.67 124.51 24.88 176.33 24.88 179.42 53.03 195.67 142.82 143.85 142.82 140.77" style="fill:#ebebeb"></polygon><polygon points="53.03 192.58 142.82 140.77 114.67 124.51 24.88 176.33 53.03 192.58" style="fill:#fafafa"></polygon><polygon points="53.03 192.58 53.03 195.67 24.88 179.42 24.88 176.33 53.03 192.58" style="fill:#e6e6e6"></polygon><polygon points="118.58 99.32 135.1 108.86 135.1 140.28 118.58 130.74 118.58 99.32" style="fill:#e0e0e0"></polygon><path d="M134.57,109.38l-16-9.17a6.76,6.76,0,0,1-3.65,2l15.85,9.13A16.1,16.1,0,0,0,134.57,109.38Z" style="fill:#fff"></path><path d="M129.24,111.28a3.39,3.39,0,0,0,3.07,0l2.69-1.54c.85-.49.85-1.28,0-1.76l-15.75-9-.67.38,15.5,9c.5.29.5.76,0,1l-2.5,1.42a2.05,2.05,0,0,1-1.84,0l-15.49-8.93-.75.43Z" style="fill:#fafafa"></path><path d="M113.49,102.24v31.42l15.75,9a3.39,3.39,0,0,0,3.07,0l2.69-1.54a1.07,1.07,0,0,0,.64-.88V108.86a1.06,1.06,0,0,1-.64.88l-2.69,1.55a3.45,3.45,0,0,1-3.07,0Z" style="fill:#e0e0e0"></path><path d="M130.78,111.65a3.17,3.17,0,0,0,1.53-.36l2.69-1.55a1.06,1.06,0,0,0,.64-.88v31.42a1.07,1.07,0,0,1-.64.88l-2.69,1.54a3.18,3.18,0,0,1-1.53.37Z" style="fill:#f0f0f0"></path><polygon points="111.83 103.19 128.34 112.74 128.34 144.15 111.83 134.62 111.83 103.19" style="fill:#ebebeb"></polygon><path d="M127.81,113.26l-16-9.17a6.72,6.72,0,0,1-3.66,2L124,115.22A15.86,15.86,0,0,0,127.81,113.26Z" style="fill:#fff"></path><path d="M122.49,115.16a3.39,3.39,0,0,0,3.07,0l2.69-1.54a.93.93,0,0,0,0-1.77l-15.75-9-.67.39,15.49,8.94c.51.3.51.77,0,1.06l-2.5,1.42a2.05,2.05,0,0,1-1.84,0l-15.49-8.93-.76.43Z" style="fill:#fafafa"></path><path d="M106.74,106.12v31.42l15.75,9a3.39,3.39,0,0,0,3.07,0l2.69-1.55a1.07,1.07,0,0,0,.63-.88V112.73a1.08,1.08,0,0,1-.63.89l-2.69,1.54a3.39,3.39,0,0,1-3.07,0Z" style="fill:#e0e0e0"></path><path d="M124,115.53a3.11,3.11,0,0,0,1.54-.37l2.69-1.54a1.08,1.08,0,0,0,.63-.89v31.42a1.07,1.07,0,0,1-.63.88l-2.69,1.55a3.21,3.21,0,0,1-1.54.36Z" style="fill:#f0f0f0"></path><polygon points="100.55 111.55 117.07 121.08 111.94 153.45 95.42 143.91 100.55 111.55" style="fill:#ebebeb"></polygon><path d="M116.41,121.54l-16-9.18A8.74,8.74,0,0,1,96.17,114L112,123.15A21.25,21.25,0,0,0,116.41,121.54Z" style="fill:#fff"></path><path d="M110.36,123a4.26,4.26,0,0,0,3.33.15l3.14-1.28c1-.41,1.11-1.13.26-1.62l-15.76-9-.78.32L116,120.49c.51.29.44.73-.15,1L113,122.64a2.61,2.61,0,0,1-2-.09l-15.49-8.93-.88.36Z" style="fill:#fafafa"></path><path d="M94.6,114l-5.13,32.37,15.76,9a4.3,4.3,0,0,0,3.33.15l3.15-1.28c.49-.21.77-.49.81-.78l5.13-32.37c0,.29-.32.57-.81.78l-3.15,1.28a4.26,4.26,0,0,1-3.33-.15Z" style="fill:#e0e0e0"></path><path d="M112,123.43a4,4,0,0,0,1.72-.26l3.15-1.28c.49-.21.77-.49.81-.78l-5.13,32.37c0,.29-.32.57-.81.78l-3.15,1.28a4.32,4.32,0,0,1-1.72.26Z" style="fill:#f0f0f0"></path><polygon points="84.12 120.08 100.64 129.62 100.64 161.04 84.12 151.5 84.12 120.08" style="fill:#e0e0e0"></polygon><path d="M100.1,130.15l-16-9.18a6.63,6.63,0,0,1-3.65,2l15.84,9.13A15.42,15.42,0,0,0,100.1,130.15Z" style="fill:#fff"></path><path d="M94.78,132.05a3.39,3.39,0,0,0,3.07,0l2.69-1.54a.93.93,0,0,0,0-1.77l-15.75-9-.67.38,15.49,9a.56.56,0,0,1,0,1.06l-2.5,1.42a2.05,2.05,0,0,1-1.84,0l-15.49-8.93L79,123Z" style="fill:#fafafa"></path><path d="M79,123v31.42l15.75,9a3.45,3.45,0,0,0,3.07,0l2.69-1.55a1.08,1.08,0,0,0,.64-.88V129.62a1.08,1.08,0,0,1-.64.88l-2.69,1.55a3.39,3.39,0,0,1-3.07,0Z" style="fill:#e0e0e0"></path><path d="M96.31,132.42a3.08,3.08,0,0,0,1.54-.37l2.69-1.55a1.08,1.08,0,0,0,.64-.88V161a1.08,1.08,0,0,1-.64.88l-2.69,1.55a3.18,3.18,0,0,1-1.54.36Z" style="fill:#f0f0f0"></path><polygon points="77.37 123.96 93.88 133.5 93.88 164.92 77.37 155.38 77.37 123.96" style="fill:#ebebeb"></polygon><path d="M93.35,134l-16-9.17a6.76,6.76,0,0,1-3.66,2L89.56,136A16.1,16.1,0,0,0,93.35,134Z" style="fill:#fff"></path><path d="M88,135.93a3.47,3.47,0,0,0,3.08,0l2.69-1.55a.93.93,0,0,0,0-1.76l-15.76-9-.66.38,15.49,9c.51.29.51.76,0,1.06l-2.5,1.41a2,2,0,0,1-1.85,0L73,126.45l-.76.44Z" style="fill:#fafafa"></path><path d="M72.27,126.89v31.42l15.75,9a3.41,3.41,0,0,0,3.08,0l2.69-1.54a1.07,1.07,0,0,0,.63-.88V133.5a1.07,1.07,0,0,1-.63.88l-2.69,1.55a3.41,3.41,0,0,1-3.08,0Z" style="fill:#e0e0e0"></path><path d="M89.56,136.29a3.21,3.21,0,0,0,1.54-.36l2.69-1.55a1.07,1.07,0,0,0,.63-.88v31.42a1.07,1.07,0,0,1-.63.88l-2.69,1.54a3.11,3.11,0,0,1-1.54.37Z" style="fill:#f0f0f0"></path><polygon points="66.09 132.31 82.6 141.85 77.47 174.22 60.96 164.68 66.09 132.31" style="fill:#ebebeb"></polygon><path d="M82,142.3l-16-9.17a8.74,8.74,0,0,1-4.25,1.65l15.85,9.13A21.25,21.25,0,0,0,82,142.3Z" style="fill:#fff"></path><path d="M75.9,143.79a4.35,4.35,0,0,0,3.33.15l3.14-1.29c1-.4,1.11-1.12.26-1.61l-15.76-9-.78.32,15.49,8.95c.51.29.44.72-.15,1l-2.92,1.17a2.52,2.52,0,0,1-2-.09L61,134.38l-.88.36Z" style="fill:#fafafa"></path><path d="M60.14,134.74,55,167.11l15.76,9a4.26,4.26,0,0,0,3.33.15L77.24,175c.5-.2.77-.48.82-.78l5.13-32.36c0,.29-.32.57-.82.77l-3.14,1.29a4.3,4.3,0,0,1-3.33-.15Z" style="fill:#e0e0e0"></path><path d="M77.51,144.2a4.2,4.2,0,0,0,1.72-.26l3.14-1.29c.5-.2.77-.48.82-.77l-5.13,32.36c0,.3-.32.58-.82.78L74.1,176.3a4,4,0,0,1-1.72.26Z" style="fill:#f0f0f0"></path><g id="freepik--Pot--inject-10"><path id="freepik--shadow--inject-10" d="M54.15,173.3c3.89,2.24,3.89,5.88,0,8.12a15.51,15.51,0,0,1-14.07,0c-3.89-2.24-3.89-5.88,0-8.12A15.57,15.57,0,0,1,54.15,173.3Z" style="opacity:0.05"></path><path d="M40.79,179c-3.39-3.46-5.37-12.08-2.07-14.82H55.51c3.3,2.74,1.31,11.36-2.07,14.81l-.09.1-.12.11a2.68,2.68,0,0,1-.3.28l-.08.06-.26.19a4.08,4.08,0,0,1-.44.28,11.12,11.12,0,0,1-10.08,0h0c-.15-.08-.29-.18-.44-.28l-.23-.18-.1-.08a2.55,2.55,0,0,1-.3-.26l-.13-.13Z" style="fill:#f5f5f5"></path><path d="M54.05,162.83c3.83,2.21,3.83,5.8,0,8a15.34,15.34,0,0,1-13.87,0c-3.84-2.21-3.84-5.8,0-8A15.34,15.34,0,0,1,54.05,162.83Z" style="fill:#fff"></path><path d="M51.34,164.4c2.33,1.35,2.33,3.53,0,4.87a9.32,9.32,0,0,1-8.45,0c-2.33-1.34-2.33-3.52,0-4.87A9.32,9.32,0,0,1,51.34,164.4Z" style="fill:#ebebeb"></path><path d="M42.89,166.71a9.38,9.38,0,0,1,8.45,0A4.05,4.05,0,0,1,52.73,168a3.87,3.87,0,0,1-1.39,1.28,9.32,9.32,0,0,1-8.45,0A3.71,3.71,0,0,1,41.5,168,3.88,3.88,0,0,1,42.89,166.71Z" style="fill:#e0e0e0"></path><path d="M50.82,168a19,19,0,0,0,3-4.06c1.41-2.49,1.67-5.83,1-6.24s-3.7,2.92-3.7,2.92a17.85,17.85,0,0,0,.31-4.26c-.12-2.22-.66-4.24-1.3-4.65s-2.06,2.4-2.67,4.43-1,3.7-1,3.7a31.2,31.2,0,0,0-1.1-4.67c-.74-2.11-1.41-2.59-1.93-2.38s-.86,1.19-1,4a28.57,28.57,0,0,0,.13,4s-1-1.15-2.21-2.27-1.82-1.39-2.19-1.16-.46,2.14,1.52,5.71A19.82,19.82,0,0,0,43.41,168S46.15,169.76,50.82,168Z" style="fill:#ebebeb"></path></g></g><g id="freepik--shelf--inject-10"><polygon points="142.82 79.79 114.67 63.54 24.88 115.36 24.88 118.44 53.03 134.7 142.82 82.88 142.82 79.79" style="fill:#ebebeb"></polygon><polygon points="53.03 131.61 142.82 79.79 114.67 63.54 24.88 115.36 53.03 131.61" style="fill:#fafafa"></polygon><polygon points="53.03 131.61 53.03 134.7 24.88 118.44 24.88 115.36 53.03 131.61" style="fill:#e6e6e6"></polygon><polygon points="116.17 35.34 134.43 45.89 134.43 80.61 116.17 70.07 116.17 35.34" style="fill:#e0e0e0"></polygon><path d="M133.84,46.47,116.17,36.33a7.45,7.45,0,0,1-4,2.21l17.52,10.09A17.51,17.51,0,0,0,133.84,46.47Z" style="fill:#fff"></path><path d="M128,48.57a3.77,3.77,0,0,0,3.4,0l3-1.71a1,1,0,0,0,0-1.94l-17.41-10-.74.42,17.13,9.89c.56.33.56.85,0,1.17L130.53,48a2.27,2.27,0,0,1-2,0L111.38,38.1l-.84.48Z" style="fill:#fafafa"></path><path d="M110.54,38.58V73.3L128,83.3a3.83,3.83,0,0,0,3.4,0l3-1.71a1.19,1.19,0,0,0,.71-1V45.89a1.19,1.19,0,0,1-.71,1l-3,1.71a3.77,3.77,0,0,1-3.4,0Z" style="fill:#e0e0e0"></path><path d="M129.65,49a3.48,3.48,0,0,0,1.7-.41l3-1.71a1.19,1.19,0,0,0,.71-1V80.61a1.19,1.19,0,0,1-.71,1l-3,1.71a3.59,3.59,0,0,1-1.7.4Z" style="fill:#f0f0f0"></path><polygon points="108.71 39.63 126.96 50.17 126.96 84.9 108.71 74.36 108.71 39.63" style="fill:#ebebeb"></polygon><path d="M126.38,50.75,108.71,40.61a7.43,7.43,0,0,1-4,2.21l17.52,10.1A18,18,0,0,0,126.38,50.75Z" style="fill:#fff"></path><path d="M120.49,52.86a3.81,3.81,0,0,0,3.39,0l3-1.71a1,1,0,0,0,0-1.95l-17.41-10-.74.42,17.12,9.89a.61.61,0,0,1,0,1.17l-2.76,1.57a2.29,2.29,0,0,1-2,0l-17.12-9.88-.83.48Z" style="fill:#fafafa"></path><path d="M103.08,42.86V77.59l17.41,10a3.75,3.75,0,0,0,3.39,0l3-1.71a1.18,1.18,0,0,0,.7-1V50.17a1.18,1.18,0,0,1-.7,1l-3,1.71a3.75,3.75,0,0,1-3.39,0Z" style="fill:#e0e0e0"></path><path d="M122.19,53.26a3.43,3.43,0,0,0,1.69-.4l3-1.71a1.18,1.18,0,0,0,.7-1V84.9a1.18,1.18,0,0,1-.7,1l-3,1.71a3.43,3.43,0,0,1-1.69.4Z" style="fill:#f0f0f0"></path><polygon points="96.25 48.86 114.5 59.4 108.83 95.18 90.58 84.64 96.25 48.86" style="fill:#ebebeb"></polygon><path d="M113.78,59.9,96.1,49.76a9.67,9.67,0,0,1-4.7,1.83l17.52,10.09A23.78,23.78,0,0,0,113.78,59.9Z" style="fill:#fff"></path><path d="M107.09,61.54a4.72,4.72,0,0,0,3.68.17l3.47-1.42c1.1-.45,1.22-1.25.29-1.78l-17.42-10-.86.35,17.12,9.89c.56.32.48.8-.17,1.07L110,61.12a2.86,2.86,0,0,1-2.21-.1L90.64,51.15l-1,.4Z" style="fill:#fafafa"></path><path d="M89.67,51.55,84,87.32l17.42,10a4.73,4.73,0,0,0,3.68.16l3.47-1.41c.55-.23.86-.54.91-.86l5.67-35.78c-.06.33-.36.64-.91.86l-3.47,1.42a4.77,4.77,0,0,1-3.68-.16Z" style="fill:#e0e0e0"></path><path d="M108.87,62a4.69,4.69,0,0,0,1.9-.29l3.47-1.42c.55-.22.85-.53.91-.86l-5.67,35.78c0,.32-.36.63-.91.86l-3.47,1.41a4.52,4.52,0,0,1-1.9.29Z" style="fill:#f0f0f0"></path><g id="freepik--Picture--inject-10"><g id="freepik--Frame--inject-10"><polygon points="65.91 113.85 67.21 114.47 91.16 100.64 89.86 100.02 65.91 113.85" style="fill:#fafafa"></polygon><polygon points="89.86 100.02 67.08 113.17 63.77 79.09 86.55 65.95 89.86 100.02" style="fill:#fff"></polygon><path d="M89.68,61.59,61.33,78l3.91,40.19,28.35-16.37Zm1.48,39.05-24,13.83L63.77,79.09,87.72,65.27Z" style="fill:#f0f0f0"></path><polygon points="91.16 100.64 89.86 100.02 86.55 65.95 87.72 65.27 91.16 100.64" style="fill:#e0e0e0"></polygon><polygon points="89.69 61.59 88.37 60.98 60.02 77.35 61.33 77.96 89.69 61.59" style="fill:#fafafa"></polygon><polygon points="60.02 77.35 61.33 77.96 65.24 118.15 63.93 117.54 60.02 77.35" style="fill:#e0e0e0"></polygon></g><g id="freepik--Land--inject-10"><polygon points="88.86 99.37 67.86 111.5 67.3 105.76 71.21 88.89 74.93 94.65 74.16 99.5 80.37 81.6 88.3 93.63 88.86 99.37" style="fill:#f0f0f0"></polygon><path d="M70.88,81.79a3,3,0,0,0-1.38,2.6c.09.94.86,1.29,1.71.8a3,3,0,0,0,1.39-2.6C72.51,81.66,71.74,81.3,70.88,81.79Z" style="fill:#f0f0f0"></path></g></g><g id="freepik--pot--inject-10"><path id="freepik--shadow--inject-10" d="M54.12,111.48c3.88,2.24,3.88,5.88,0,8.13a15.59,15.59,0,0,1-14.08,0c-3.88-2.25-3.88-5.88,0-8.13A15.59,15.59,0,0,1,54.12,111.48Z" style="opacity:0.05"></path><path d="M40.75,117.14c-3.38-3.45-5.37-12.07-2.07-14.81h16.8c3.3,2.73,1.31,11.35-2.07,14.81l-.09.09-.12.12-.31.27-.08.06-.25.19a3.59,3.59,0,0,1-.44.28,11.12,11.12,0,0,1-10.08,0h0a3,3,0,0,1-.44-.28l-.24-.18-.1-.08-.29-.26-.14-.13A.6.6,0,0,0,40.75,117.14Z" style="fill:#f5f5f5"></path><path d="M54,101c3.83,2.22,3.83,5.8,0,8a15.3,15.3,0,0,1-13.88,0c-3.83-2.21-3.83-5.79,0-8A15.36,15.36,0,0,1,54,101Z" style="fill:#fff"></path><path d="M51.3,102.58c2.33,1.35,2.33,3.53,0,4.88a9.36,9.36,0,0,1-8.44,0c-2.33-1.35-2.33-3.53,0-4.88A9.36,9.36,0,0,1,51.3,102.58Z" style="fill:#ebebeb"></path><path d="M42.86,104.9a9.3,9.3,0,0,1,8.44,0,3.82,3.82,0,0,1,1.4,1.28,4,4,0,0,1-1.4,1.28,9.36,9.36,0,0,1-8.44,0,4,4,0,0,1-1.4-1.28A3.82,3.82,0,0,1,42.86,104.9Z" style="fill:#e0e0e0"></path><path d="M50.79,106.18a19.34,19.34,0,0,0,3.05-4.06c1.41-2.5,1.67-5.84.94-6.25s-3.69,2.92-3.69,2.92a18.48,18.48,0,0,0,.31-4.26c-.13-2.22-.67-4.24-1.3-4.64S48,92.28,47.43,94.31s-1,3.7-1,3.7a30.88,30.88,0,0,0-1.09-4.67C44.62,91.23,44,90.75,43.43,91s-.87,1.19-1,4a26.93,26.93,0,0,0,.13,4s-1-1.15-2.21-2.27-1.82-1.39-2.19-1.16-.46,2.14,1.51,5.72a20.23,20.23,0,0,0,3.73,4.91S46.12,107.94,50.79,106.18Z" style="fill:#ebebeb"></path></g></g></g><g id="freepik--Window--inject-10"><g id="freepik--window--inject-10"><polygon points="476.06 169.03 473.8 170.37 389.48 121.46 391.73 120.11 476.06 169.03" style="fill:#fafafa"></polygon><polygon points="391.73 120.11 473.8 167.72 473.8 98.08 391.73 50.5 391.73 120.11" style="fill:#fff"></polygon><polygon points="432.7 71.87 432.7 144.16 428.45 141.7 428.45 69.42 432.7 71.87" style="fill:#f0f0f0"></polygon><polygon points="434.83 70.64 432.7 71.87 432.7 144.16 434.83 142.92 434.83 70.64" style="fill:#e0e0e0"></polygon><path d="M385.22,123.92l92.84,53.82V95.63L385.22,41.8Zm4.26-74.75L473.8,98.08v72.29l-84.32-48.91Z" style="fill:#f0f0f0"></path><polygon points="389.48 121.46 391.73 120.11 391.73 50.5 389.48 49.17 389.48 121.46" style="fill:#e0e0e0"></polygon><polygon points="385.22 41.8 387.51 40.49 480.35 94.32 478.06 95.63 385.22 41.8" style="fill:#fafafa"></polygon><polygon points="480.35 94.32 478.06 95.63 478.06 177.74 480.35 176.43 480.35 94.32" style="fill:#e0e0e0"></polygon><polygon points="432.7 74.32 428.46 71.87 428.46 74.33 432.7 76.78 432.7 74.32" style="fill:#e0e0e0"></polygon><polygon points="432.7 76.78 434.83 75.55 432.7 74.32 432.7 76.78" style="opacity:0.15"></polygon></g></g><g id="freepik--Pictures--inject-10"><g id="freepik--picture--inject-10"><g id="freepik--frame--inject-10"><polygon points="365.86 65.28 364.52 66.08 337.04 50.21 338.38 49.41 365.86 65.28" style="fill:#fafafa"></polygon><polygon points="338.38 49.41 364.52 64.5 364.52 37.12 338.38 22.04 338.38 49.41" style="fill:#fff"></polygon><path d="M334.51,51.67l32.54,18.78V35.67L334.51,16.88ZM337,21.26l27.48,15.86v29L337,50.21Z" style="fill:#f0f0f0"></path><polygon points="337.04 50.21 338.38 49.41 338.38 22.04 337.04 21.26 337.04 50.21" style="fill:#e0e0e0"></polygon><polygon points="334.51 16.88 335.87 16.1 368.41 34.89 367.05 35.67 334.51 16.88" style="fill:#fafafa"></polygon><polygon points="368.41 34.89 367.05 35.67 367.05 70.45 368.41 69.67 368.41 34.89" style="fill:#e0e0e0"></polygon></g><g id="freepik--land--inject-10"><polygon points="339.4 48.59 363.5 62.51 363.5 55.55 357.48 41.63 353.72 45.11 355.07 50.95 346.75 33.15 339.4 41.63 339.4 48.59" style="fill:#f0f0f0"></polygon><path d="M354,34.92A3.93,3.93,0,0,1,355.73,38c0,1.14-.8,1.6-1.78,1A3.92,3.92,0,0,1,352.17,36C352.17,34.81,353,34.35,354,34.92Z" style="fill:#f0f0f0"></path></g></g><g id="freepik--picture--inject-10"><g id="freepik--frame--inject-10"><polygon points="365.86 113.4 364.52 114.2 337.04 98.33 338.38 97.53 365.86 113.4" style="fill:#fafafa"></polygon><polygon points="338.38 97.53 364.52 112.63 364.52 85.25 338.38 70.17 338.38 97.53" style="fill:#fff"></polygon><path d="M334.51,99.79l32.54,18.79V83.79L334.51,65ZM337,69.38l27.48,15.87v29L337,98.33Z" style="fill:#f0f0f0"></path><polygon points="337.04 98.33 338.38 97.53 338.38 70.17 337.04 69.38 337.04 98.33" style="fill:#e0e0e0"></polygon><polygon points="334.51 65 335.87 64.22 368.41 83.01 367.05 83.79 334.51 65" style="fill:#fafafa"></polygon><polygon points="368.41 83.01 367.05 83.79 367.05 118.58 368.41 117.8 368.41 83.01" style="fill:#e0e0e0"></polygon></g><g id="freepik--land--inject-10"><polygon points="339.4 96.72 363.5 110.63 363.5 103.67 357.48 89.76 353.72 93.24 355.07 99.07 346.75 81.27 339.4 89.76 339.4 96.72" style="fill:#f0f0f0"></polygon><path d="M354,83a4,4,0,0,1,1.78,3.09c0,1.13-.8,1.59-1.78,1a3.92,3.92,0,0,1-1.78-3.09C352.17,82.93,353,82.47,354,83Z" style="fill:#f0f0f0"></path></g></g></g><g id="freepik--Lamp--inject-10"><g id="freepik--lamp--inject-10"><path id="freepik--shadow--inject-10" d="M186.72,237.6c-8,4.63-8,12.14,0,16.77s21,4.63,29.05,0,8-12.14,0-16.77S194.74,233,186.72,237.6Z" style="opacity:0.15"></path><g id="freepik--lamp--inject-10"><path d="M190.38,238.57c-6,3.46-6,9.08,0,12.55s15.73,3.46,21.73,0,6-9.09,0-12.55S196.38,235.11,190.38,238.57Z" style="fill:#37474f"></path><path d="M216.61,244.84h0c0-2.27-1.49-4.54-4.49-6.27-6-3.46-15.73-3.46-21.73,0-3,1.73-4.49,4-4.49,6.27h0V247h0c0,2.24,1.54,4.47,4.5,6.18,6,3.46,15.73,3.46,21.73,0,3-1.71,4.46-3.94,4.5-6.18h0Z" style="fill:#37474f"></path><path d="M190.38,238.57c-6,3.46-6,9.08,0,12.55s15.73,3.46,21.73,0,6-9.09,0-12.55S196.38,235.11,190.38,238.57Z" style="fill:#455a64"></path><path d="M202.9,101h-3.31V243.85h0a.78.78,0,0,0,.47.76,2.61,2.61,0,0,0,2.34,0,.78.78,0,0,0,.47-.76h0Z" style="fill:#37474f"></path><path d="M222.83,97.81h0l-5.32-25.47H185l-5.32,25.47h0c-1.45,4,.54,8.43,6,11.58,8.61,5,22.57,5,31.19,0C222.28,106.24,224.27,101.86,222.83,97.81Z" style="fill:#1F94DB"></path><path d="M222.83,97.81h0l-5.32-25.47H185l-5.32,25.47h0c-1.45,4,.54,8.43,6,11.58,8.61,5,22.57,5,31.19,0C222.28,106.24,224.27,101.86,222.83,97.81Z" style="fill:#fff;opacity:0.5"></path><path d="M189.67,80c6.39,3.69,16.75,3.69,23.14,0s6.39-9.67,0-13.36-16.75-3.69-23.14,0S183.28,76.31,189.67,80Z" style="fill:#1F94DB"></path><path d="M189.67,80c6.39,3.69,16.75,3.69,23.14,0s6.39-9.67,0-13.36-16.75-3.69-23.14,0S183.28,76.31,189.67,80Z" style="fill:#fff;opacity:0.65"></path><path d="M201.24,80.44a20.39,20.39,0,0,1-10-2.37c-2.34-1.35-3.63-3-3.63-4.75s1.29-3.4,3.63-4.75a22.3,22.3,0,0,1,20.05,0c2.34,1.35,3.63,3,3.63,4.75s-1.29,3.4-3.63,4.75A20.41,20.41,0,0,1,201.24,80.44Z" style="fill:#1F94DB"></path><path d="M201.24,80.44a20.39,20.39,0,0,1-10-2.37c-2.34-1.35-3.63-3-3.63-4.75s1.29-3.4,3.63-4.75a22.3,22.3,0,0,1,20.05,0c2.34,1.35,3.63,3,3.63,4.75s-1.29,3.4-3.63,4.75A20.41,20.41,0,0,1,201.24,80.44Z" style="fill:#fff;opacity:0.5"></path><path d="M201.24,80.44a20.39,20.39,0,0,1-10-2.37c-2.34-1.35-3.63-3-3.63-4.75s1.29-3.4,3.63-4.75a22.3,22.3,0,0,1,20.05,0c2.34,1.35,3.63,3,3.63,4.75s-1.29,3.4-3.63,4.75A20.41,20.41,0,0,1,201.24,80.44Z" style="opacity:0.1"></path></g></g></g><g id="freepik--side-table--inject-10"><g id="freepik--side-table--inject-10"><g id="freepik--side-table--inject-10"><polygon points="214.64 325.8 208.11 322.03 214.64 320.15 214.64 325.8" style="fill:#1F94DB"></polygon><polygon points="214.64 325.8 208.11 322.03 214.64 320.15 214.64 325.8" style="fill:#fff;opacity:0.6000000000000001"></polygon><polygon points="214.64 325.8 208.11 322.03 214.64 320.15 214.64 325.8" style="opacity:0.05"></polygon><polygon points="214.64 325.8 217.9 323.92 217.9 318.26 214.64 320.15 214.64 325.8" style="fill:#1F94DB"></polygon><polygon points="214.64 325.8 217.9 323.92 217.9 318.26 214.64 320.15 214.64 325.8" style="fill:#fff;opacity:0.75"></polygon><polygon points="181.93 339.03 181.93 345.04 134.69 317.78 134.69 311.77 181.93 339.03" style="fill:#1F94DB"></polygon><polygon points="181.93 339.03 181.93 345.04 134.69 317.78 134.69 311.77 181.93 339.03" style="fill:#fff;opacity:0.6000000000000001"></polygon><polygon points="181.93 339.03 181.93 345.04 134.69 317.78 134.69 311.77 181.93 339.03" style="opacity:0.1"></polygon><polygon points="181.93 345.04 185.2 343.15 185.2 337.14 181.93 339.03 181.93 345.04" style="fill:#1F94DB"></polygon><polygon points="181.93 345.04 185.2 343.15 185.2 337.14 181.93 339.03 181.93 345.04" style="fill:#fff;opacity:0.75"></polygon><polygon points="131.42 264.64 178.67 291.91 178.67 340.92 131.42 313.65 131.42 264.64" style="fill:#1F94DB"></polygon><polygon points="131.42 264.64 178.67 291.91 178.67 340.92 131.42 313.65 131.42 264.64" style="fill:#fff;opacity:0.6000000000000001"></polygon><polygon points="178.67 291.91 221.17 267.37 221.17 316.38 178.67 340.92 178.67 291.91" style="fill:#1F94DB"></polygon><polygon points="178.67 291.91 221.17 267.37 221.17 316.38 178.67 340.92 178.67 291.91" style="fill:#fff;opacity:0.75"></polygon><polygon points="221.17 267.37 173.92 240.1 131.42 264.64 178.67 291.91 221.17 267.37" style="fill:#1F94DB"></polygon><polygon points="221.17 267.37 173.92 240.1 131.42 264.64 178.67 291.91 221.17 267.37" style="fill:#fff;opacity:0.85"></polygon><polygon points="181.93 308.87 217.9 288.1 217.9 314.49 181.93 335.26 181.93 308.87" style="fill:#1F94DB"></polygon><polygon points="181.93 308.87 217.9 288.1 217.9 314.49 181.93 335.26 181.93 308.87" style="fill:#fff;opacity:0.7000000000000001"></polygon><polygon points="217.9 314.49 195.2 301.21 181.93 308.87 181.93 335.26 217.9 314.49" style="opacity:0.1"></polygon><polygon points="217.9 314.49 195.2 301.21 217.9 288.1 217.9 314.49" style="opacity:0.05"></polygon><polygon points="181.93 293.79 217.9 273.02 217.9 284.33 181.93 305.1 181.93 293.79" style="fill:#1F94DB"></polygon><polygon points="181.93 293.79 217.9 273.02 217.9 284.33 181.93 305.1 181.93 293.79" style="fill:#fff;opacity:0.85"></polygon><path d="M193.08,289.74c0,.52,1.56,0,3.48-1.07l6.1-3.52c1.92-1.11,3.48-2.43,3.48-2.95v-.95l-13.06,7.54Z" style="fill:#455a64"></path></g><g id="freepik--Plant--inject-10"><g id="freepik--shadow--inject-10" style="opacity:0.1"><path d="M181.83,258.57c4,2.3,4,6,0,8.33a15.91,15.91,0,0,1-14.44,0c-4-2.3-4-6,0-8.33A16,16,0,0,1,181.83,258.57Z" style="fill:#1F94DB"></path></g><g id="freepik--shadow--inject-10" style="opacity:0.05"><path d="M181.83,258.57c4,2.3,4,6,0,8.33a15.91,15.91,0,0,1-14.44,0c-4-2.3-4-6,0-8.33A16,16,0,0,1,181.83,258.57Z"></path></g><g id="freepik--pot--inject-10"><path d="M180.43,263.07c3.22-3.29,5.11-11.49,2-14.1h-16c-3.14,2.61-1.25,10.81,2,14.1l.09.09a1.14,1.14,0,0,1,.11.11l.29.25.08.06a2.23,2.23,0,0,0,.24.19,3.19,3.19,0,0,0,.42.26,10.59,10.59,0,0,0,9.59,0h0a4.78,4.78,0,0,0,.42-.26l.22-.18.1-.07.28-.25.13-.12Z" style="fill:#ebebeb"></path><path d="M167.81,247.93c-3.65,2.1-3.65,5.51,0,7.62a14.62,14.62,0,0,0,13.2,0c3.65-2.11,3.65-5.52,0-7.62A14.55,14.55,0,0,0,167.81,247.93Z" style="fill:#fafafa"></path><path d="M170.4,249.42c-2.22,1.28-2.22,3.35,0,4.64a8.88,8.88,0,0,0,8,0c2.22-1.29,2.22-3.36,0-4.64A8.88,8.88,0,0,0,170.4,249.42Z" style="fill:#ebebeb"></path><path d="M178.43,251.62a8.88,8.88,0,0,0-8,0,3.54,3.54,0,0,0-1.33,1.22,3.7,3.7,0,0,0,1.33,1.22,8.88,8.88,0,0,0,8,0,3.88,3.88,0,0,0,1.33-1.22A3.7,3.7,0,0,0,178.43,251.62Z" style="fill:#455a64"></path><path d="M174.66,253.43A10.58,10.58,0,0,0,184,247.9c3.41-6.22-.68-13.22-.68-13.22a10.25,10.25,0,0,1-4.18,2.82c-3,1.24-5.75,3.25-6.3,7.58A12,12,0,0,0,174.66,253.43Z" style="fill:#1F94DB"></path><path d="M174.66,253.43A10.58,10.58,0,0,0,184,247.9c3.41-6.22-.68-13.22-.68-13.22a10.25,10.25,0,0,1-4.18,2.82c-3,1.24-5.75,3.25-6.3,7.58A12,12,0,0,0,174.66,253.43Z" style="opacity:0.1"></path><path d="M183.33,234.68a10.25,10.25,0,0,1-4.18,2.82c-3,1.24-5.75,3.25-6.3,7.58a12,12,0,0,0,1.81,8.35C184.72,246.1,184.11,238.35,183.33,234.68Z" style="opacity:0.1"></path><path d="M183.65,236.79a11.79,11.79,0,0,1,0,4.47,17.06,17.06,0,0,1-1.41,4.28,16.82,16.82,0,0,1-5.93,6.62,28.66,28.66,0,0,0,3-3.19,20.47,20.47,0,0,0,2.35-3.7,18,18,0,0,0,1.49-4.1A15.29,15.29,0,0,0,183.65,236.79Z" style="fill:#fafafa"></path><path d="M179.69,240a7,7,0,0,1,2.07,2.51,4,4,0,0,1,.52,1.61,2.65,2.65,0,0,1-.45,1.64l-.07,0c-.08-.57-.16-1-.27-1.53s-.16-1-.32-1.46a8.26,8.26,0,0,0-1.53-2.7Z" style="fill:#fafafa"></path><path d="M174.66,253.43s-6.53-.48-9-5c-2.62-4.75.62-8.79-1.23-13.42,0,0,8.57.92,11.6,5.64C179.48,246.07,177.27,250.31,174.66,253.43Z" style="fill:#1F94DB"></path><path d="M176,240.66c-3-4.72-11.6-5.64-11.6-5.64,2.13.86,10.54,9.77,10.26,18.41C177.27,250.31,179.48,246.07,176,240.66Z" style="opacity:0.1"></path><path d="M165.54,235.76a19,19,0,0,1,3.63,3.42,28.4,28.4,0,0,1,2.82,4.13,26.41,26.41,0,0,1,2,4.6,13.54,13.54,0,0,1,.69,4.93,17.43,17.43,0,0,0-1.13-4.79,29.45,29.45,0,0,0-2.07-4.45,32.73,32.73,0,0,0-2.66-4.14A28.58,28.58,0,0,0,165.54,235.76Z" style="fill:#fafafa"></path><path d="M167.23,243.87a10.2,10.2,0,0,1,2.87-.08,4.42,4.42,0,0,1,1.43.31,2.73,2.73,0,0,1,1.14,1l0,.06c-.51-.08-.93-.2-1.37-.31s-.83-.31-1.27-.43a15.48,15.48,0,0,0-2.75-.46Z" style="fill:#fafafa"></path></g></g></g></g><g id="freepik--plant--inject-10"><g id="freepik--pot--inject-10"><g id="freepik--pot--inject-10"><g id="freepik--pot--inject-10"><path d="M257.92,246c6.3-6.49,10-32.93,3.86-38.08H230.53c-6.14,5.15-2.45,31.58,3.85,38.08l.17.18.22.21a4.7,4.7,0,0,0,.57.51,1.58,1.58,0,0,0,.15.12,5.9,5.9,0,0,0,.47.37,9.18,9.18,0,0,0,.81.52c5.18,3,13.58,3,18.76,0h0a6.71,6.71,0,0,0,.82-.53,5.12,5.12,0,0,0,.44-.34l.19-.14c.19-.17.38-.33.55-.5l.25-.25C257.82,246.14,257.88,246.1,257.92,246Z" style="fill:#455a64"></path><path d="M233.24,205.88c-7.13,4.16-7.13,10.91,0,15.07s18.69,4.17,25.82,0,7.13-10.91,0-15.07S240.37,201.72,233.24,205.88Z" style="fill:#37474f"></path><path d="M236.67,207.88c-5.23,3.06-5.23,8,0,11.07s13.73,3.06,19,0,5.24-8,0-11.07S241.91,204.83,236.67,207.88Z" style="fill:#263238"></path><path d="M255.63,213.14c-5.23-3.06-13.72-3.06-19,0a8.69,8.69,0,0,0-3.13,2.9,8.63,8.63,0,0,0,3.13,2.91c5.24,3.06,13.73,3.06,19,0a8.66,8.66,0,0,0,3.14-2.91A8.73,8.73,0,0,0,255.63,213.14Z" style="fill:#fafafa"></path></g></g><g id="freepik--Plants--inject-10"><path d="M260.18,158.81l-11.87,9.41,11.48-5.3a31.69,31.69,0,0,1-2,10.87,70.24,70.24,0,0,0-8.93,6.33l8.8-3.47s.6,5.8-1.81,14.64c-.63,2.32-3.24,6.74-4.88,10a38.4,38.4,0,0,1-2.55,4.41c-.06.1-.12.18-.18.27-2-1.15-4.1-2.27-6.27-3.34-1.41-3-3.26-10.32-3.92-16.34-2.54-23,14.87-36.22,28.87-40.64A41.63,41.63,0,0,0,260.18,158.81Z" style="fill:#1F94DB"></path><path d="M260.18,158.81l-11.87,9.41,11.48-5.3a31.69,31.69,0,0,1-2,10.87,70.24,70.24,0,0,0-8.93,6.33l8.8-3.47s.6,5.8-1.81,14.64c-.63,2.32-3.24,6.74-4.88,10a38.4,38.4,0,0,1-2.55,4.41c-.06.1-.12.18-.18.27-2-1.15-4.1-2.27-6.27-3.34-1.41-3-3.26-10.32-3.92-16.34-2.54-23,14.87-36.22,28.87-40.64A41.63,41.63,0,0,0,260.18,158.81Z" style="fill:#fff;opacity:0.5"></path><path d="M250.26,159.77a22.55,22.55,0,0,0-4.93,8.85,46.5,46.5,0,0,0-2.11,10,43.11,43.11,0,0,0,2.52,20h0a.33.33,0,1,1-.62.24h0a43.62,43.62,0,0,1-2.23-20.28,47.5,47.5,0,0,1,2.28-10A22.65,22.65,0,0,1,250.26,159.77Z" style="fill:#fafafa"></path><path d="M208.82,170.88l0,0a180.74,180.74,0,0,1,12.4,17.42l12,1.94-8.87,1.55,4.76,7.55L241,201.81l-9.25,1.51s2.57,9,9.19,12.79c3.66,2.08,5.44,2.39,6.54,1.35.77-.73.95-5.06,1.59-8.92s.69-10.15-3-17.74a23.86,23.86,0,0,0-3.79-5.57C233.56,175.47,217,170.76,208.82,170.88Z" style="fill:#1F94DB"></path><path d="M208.82,170.88l0,0a180.74,180.74,0,0,1,12.4,17.42l12,1.94-8.87,1.55,4.76,7.55L241,201.81l-9.25,1.51s2.57,9,9.19,12.79c3.66,2.08,5.44,2.39,6.54,1.35.77-.73.95-5.06,1.59-8.92s.69-10.15-3-17.74a23.86,23.86,0,0,0-3.79-5.57C233.56,175.47,217,170.76,208.82,170.88Z" style="fill:#fff;opacity:0.65"></path><path d="M221.41,174.82a49,49,0,0,1,16.75,11.57,32.89,32.89,0,0,1,5.73,8.51,30.83,30.83,0,0,1,2.62,9.89s0,0,0,0a0,0,0,0,1,0,0,40.34,40.34,0,0,0-3.16-9.62,37.24,37.24,0,0,0-5.53-8.44,50,50,0,0,0-16.37-11.86s0,0,0,0A0,0,0,0,1,221.41,174.82Z" style="fill:#fafafa"></path><path d="M280.55,175.85h0a25.38,25.38,0,0,0-3,.14,48.86,48.86,0,0,0-11.59,2.82c-1.38.52-2.77,1.1-4.14,1.75-.68.33-1.36.67-2,1a33.35,33.35,0,0,0-8.87,6.71,20.87,20.87,0,0,0-3.06,4.29c-.11.2-.22.4-.32.6h0c-.25.53-.49,1-.71,1.56A29,29,0,0,0,244.18,209c.12,3.45,1.3,7.4,2,8.05a2.17,2.17,0,0,0,.3.23c1,.62,2.55.26,5.48-1.38,5.87-3.28,8.17-11.59,8.17-11.59L252,203l10.47-2.09,4.25-6.63-7.82-1.43,10.63-1.63a156.72,156.72,0,0,1,11-15.3l0,0Z" style="fill:#1F94DB"></path><path d="M280.55,175.85h0a25.38,25.38,0,0,0-3,.14,48.86,48.86,0,0,0-11.59,2.82c-1.38.52-2.77,1.1-4.14,1.75-.68.33-1.36.67-2,1a33.35,33.35,0,0,0-8.87,6.71,20.87,20.87,0,0,0-3.06,4.29c-.11.2-.22.4-.32.6h0c-.25.53-.49,1-.71,1.56A29,29,0,0,0,244.18,209c.12,3.45,1.3,7.4,2,8.05a2.17,2.17,0,0,0,.3.23c1,.62,2.55.26,5.48-1.38,5.87-3.28,8.17-11.59,8.17-11.59L252,203l10.47-2.09,4.25-6.63-7.82-1.43,10.63-1.63a156.72,156.72,0,0,1,11-15.3l0,0Z" style="fill:#fff;opacity:0.65"></path><path d="M277.52,176a48.86,48.86,0,0,0-11.59,2.82c-1.38.52-2.77,1.1-4.14,1.75-.68.33-1.36.67-2,1a33.35,33.35,0,0,0-8.87,6.71,20.87,20.87,0,0,0-3.06,4.29c-.11.2-.22.4-.32.6h0c-.25.53-.49,1-.71,1.56A29,29,0,0,0,244.18,209c.12,3.45,1.3,7.4,2,8.05a2.17,2.17,0,0,0,.3.23,1.74,1.74,0,0,0,.65.23c-.72-5.35,1.91-18.94,5.9-24.52,4.15-5.82,14-14.24,27.53-17.15v0A27,27,0,0,0,277.52,176Z" style="fill:#1F94DB;opacity:0.30000000000000004"></path><path d="M247.07,217.54a46.14,46.14,0,0,1,.76-11.84,38.56,38.56,0,0,1,3.93-11.24,33.42,33.42,0,0,1,8-8.88,44.63,44.63,0,0,1,10.2-6.12s0,0,.05,0,0,0,0,0a58.17,58.17,0,0,0-9.81,6.58,41.93,41.93,0,0,0-4.31,4,25.85,25.85,0,0,0-3.6,4.62,37.79,37.79,0,0,0-4.07,11,45.6,45.6,0,0,0-1,11.77s0,0,0,0S247.07,217.56,247.07,217.54Z" style="fill:#fafafa"></path></g></g></g><g id="freepik--characters-2--inject-10"><g id="freepik--Character--inject-10"><g id="freepik--character-nurse--inject-10"><path d="M403.12,303.54c.13-3.35-2.54-29.4-2.54-29.4l16,10.57c-1.69,19.3-2.78,18.43-2.85,21.64h0a2.65,2.65,0,0,1,.1.83c0,3.81-4.74,5.87-8.43,8.42a70.3,70.3,0,0,1-10,5.93c-2.68,1.23-8.12,1.34-8.8-.23,4.49-3.12,11-7.8,14.59-11.36C402.92,308.23,403,306.88,403.12,303.54Z" style="fill:#ffbda7"></path><path d="M379,325.41a3,3,0,0,0,.68,3.29c1.44,1.14,5.67,3,11.27,2.34s8.62-2.24,10.86-4,5.38-4.12,7.91-4.62a16.26,16.26,0,0,0,5.65-2.11c.76-.66.65-3.61.65-3.61Z" style="fill:#455a64"></path><path d="M413.77,305.42a.9.9,0,0,1,.85.69c.17.81.36,3.17.73,4.5a22.1,22.1,0,0,1,.55,7.16c-.31,1.5-4.14,2.55-6.59,3.4a31.84,31.84,0,0,0-7.94,4.57,23.71,23.71,0,0,1-11.8,4c-4.32,0-9.17-1.3-10.29-3.12-1.37-2.26-.29-3.57,6.1-6.27,1.21-.51,5.47-2.81,6.92-3.64,3.92-2.25,7.8-5.38,9.61-9.37a2.19,2.19,0,0,1,.92-1.21,2.17,2.17,0,0,1,1.24-.11,11.53,11.53,0,0,1,3.08.85c.86.37,2.08.81,2.06,1.81a3.3,3.3,0,0,1-.24,1c-.08.2-.14.47.06.6s.43,0,.59-.16a14.66,14.66,0,0,0,1.73-1.88,5.63,5.63,0,0,1,1-.94,11.79,11.79,0,0,0,1.1-.65C413.85,306.33,413.75,305.89,413.77,305.42Z" style="fill:#1F94DB"></path><path d="M413.77,305.42a.9.9,0,0,1,.85.69c.17.81.36,3.17.73,4.5a22.1,22.1,0,0,1,.55,7.16c-.31,1.5-4.14,2.55-6.59,3.4a31.84,31.84,0,0,0-7.94,4.57,23.71,23.71,0,0,1-11.8,4c-4.32,0-9.17-1.3-10.29-3.12-1.37-2.26-.29-3.57,6.1-6.27,1.21-.51,5.47-2.81,6.92-3.64,3.92-2.25,7.8-5.38,9.61-9.37a2.19,2.19,0,0,1,.92-1.21,2.17,2.17,0,0,1,1.24-.11,11.53,11.53,0,0,1,3.08.85c.86.37,2.08.81,2.06,1.81a3.3,3.3,0,0,1-.24,1c-.08.2-.14.47.06.6s.43,0,.59-.16a14.66,14.66,0,0,0,1.73-1.88,5.63,5.63,0,0,1,1-.94,11.79,11.79,0,0,0,1.1-.65C413.85,306.33,413.75,305.89,413.77,305.42Z" style="fill:#fff;opacity:0.9"></path><path d="M401.37,325.74c1.12-.84,2.3-1.65,3.49-2.37h0s-7.52,4.17-10.56,2.28c-2-1.22-1-2.7-1-3.17s-4.78-2.5-6.69-2.71h0c-.53.27-1,.48-1.25.6-6.4,2.7-7.47,4-6.1,6.27,1.12,1.82,4.64,3.24,10.21,3.24C393.14,329.87,398.75,327.72,401.37,325.74Z" style="fill:#1F94DB;opacity:0.8"></path><path d="M401.37,325.74c1.12-.84,2.3-1.65,3.49-2.37h0s-7.52,4.17-10.56,2.28c-2-1.22-1-2.7-1-3.17s-4.78-2.5-6.69-2.71h0c-.53.27-1,.48-1.25.6-6.4,2.7-7.47,4-6.1,6.27,1.12,1.82,4.64,3.24,10.21,3.24C393.14,329.87,398.75,327.72,401.37,325.74Z" style="fill:#fff;opacity:0.8"></path><path d="M393.85,321.09c-4,1.45-2.28,2.12-1.17,2.27s7.81-3.42,11.89-6.37c4.26-3.07,6.95-6.43,8.53-7.56.59-.42,1.22-.93,1.79-1.42-.11-.79-.19-1.52-.27-1.9a.9.9,0,0,0-.85-.69c0,.47.08.91-.31,1.26a11.79,11.79,0,0,1-1.1.65,5.63,5.63,0,0,0-1,.94,14.66,14.66,0,0,1-1.73,1.88C406.15,314.17,397.82,319.64,393.85,321.09Z" style="fill:#1F94DB"></path><path d="M393,322.83a.38.38,0,0,0,.25-.09.34.34,0,0,0,.06-.5,10,10,0,0,0-7.29-2.62.37.37,0,0,0-.35.39.37.37,0,0,0,.43.32,9.27,9.27,0,0,1,6.6,2.36A.39.39,0,0,0,393,322.83Z" style="fill:#fafafa"></path><path d="M396.43,320.88a.44.44,0,0,0,.25-.08.35.35,0,0,0,.06-.51,10,10,0,0,0-7.29-2.62.37.37,0,0,0-.35.4.38.38,0,0,0,.43.32,9.18,9.18,0,0,1,6.6,2.36A.42.42,0,0,0,396.43,320.88Z" style="fill:#fafafa"></path><path d="M399.9,319a.38.38,0,0,0,.25-.08.34.34,0,0,0,.06-.5,10,10,0,0,0-7.29-2.62.37.37,0,0,0-.35.4.38.38,0,0,0,.43.31,9.27,9.27,0,0,1,6.6,2.36A.38.38,0,0,0,399.9,319Z" style="fill:#fafafa"></path><path d="M403.12,316.93a.46.46,0,0,0,.25-.08.34.34,0,0,0,.05-.51,10,10,0,0,0-7.28-2.62.37.37,0,0,0-.35.4.38.38,0,0,0,.43.32,9.17,9.17,0,0,1,6.59,2.36A.44.44,0,0,0,403.12,316.93Z" style="fill:#fafafa"></path><path d="M406.27,314.82a.37.37,0,0,0,.24-.08.34.34,0,0,0,.07-.5c-1.55-1.78-5-2.95-8-2.65a.37.37,0,0,0-.35.39.38.38,0,0,0,.43.32c2.64-.26,5.89.81,7.26,2.39A.4.4,0,0,0,406.27,314.82Z" style="fill:#fafafa"></path><path d="M433.31,295.44l16.19-.3c-.24,10.81-1.95,15.89-2.23,26-.06,1.91,0,14.83-.68,18.76-1.08,5.9-8.08,5.1-8.45,1.57s.45-18.62.42-20.17c.07-6.51-3-10.57-4.58-22.24C433.9,298.52,433.39,296,433.31,295.44Z" style="fill:#ffbda7"></path><path d="M434.79,344c-.16,3.47.18,5.81,1.3,8s3.6,3,6.24,2.66,6.11-1.64,7.18-4.55a17.48,17.48,0,0,0,.91-8.21Z" style="fill:#455a64"></path><path d="M447.8,319.93c1.05.17.85,4.83.95,9.52.11,5,1.51,7.23,1.65,11.36.15,4.71-.35,6.77-2.46,9.42s-8.77,4.83-11.45.51c-2.19-3.52-1.9-7.17-1.15-11.8a109.47,109.47,0,0,0,1.55-11.8c.18-3.51.29-6.91,1.25-7.21,0,.52,0,1.17,0,1.68s-.09,2.29.5,2.36a6.34,6.34,0,0,0,.16-1.31,1.49,1.49,0,0,1,.42-1.1,2.2,2.2,0,0,1,1.23-.37c1.06-.09,2.13-.16,3.2-.15.53,0,1.07,0,1.6.08a5,5,0,0,1,1.32.3.92.92,0,0,1,.52.52,1.4,1.4,0,0,1,0,.54,3.16,3.16,0,0,0,0,1c0,.14.1.32.26.3a.27.27,0,0,0,.2-.27c.07-.56,0-1,.08-1.63,0-.3,0-.72,0-1S447.79,320.23,447.8,319.93Z" style="fill:#1F94DB"></path><path d="M447.8,319.93c1.05.17.85,4.83.95,9.52.11,5,1.51,7.23,1.65,11.36.15,4.71-.35,6.77-2.46,9.42s-8.77,4.83-11.45.51c-2.19-3.52-1.9-7.17-1.15-11.8a109.47,109.47,0,0,0,1.55-11.8c.18-3.51.29-6.91,1.25-7.21,0,.52,0,1.17,0,1.68s-.09,2.29.5,2.36a6.34,6.34,0,0,0,.16-1.31,1.49,1.49,0,0,1,.42-1.1,2.2,2.2,0,0,1,1.23-.37c1.06-.09,2.13-.16,3.2-.15.53,0,1.07,0,1.6.08a5,5,0,0,1,1.32.3.92.92,0,0,1,.52.52,1.4,1.4,0,0,1,0,.54,3.16,3.16,0,0,0,0,1c0,.14.1.32.26.3a.27.27,0,0,0,.2-.27c.07-.56,0-1,.08-1.63,0-.3,0-.72,0-1S447.79,320.23,447.8,319.93Z" style="fill:#fff;opacity:0.9"></path><path d="M450.3,339.46c0,.68.17,5.18-1.26,5.86s-1.94-2.83-1.94-2.83-3.28-1.25-8.42.26c.17.74-.85,3.05-2.15,2.43s-1.25-5.77-1.25-5.84c-.7,4.44-.92,8,1.21,11.4,2.68,4.32,9.35,2.14,11.45-.51s2.61-4.71,2.46-9.42C450.38,340.34,450.35,339.89,450.3,339.46Z" style="fill:#1F94DB"></path><path d="M450.3,339.46c0,.68.17,5.18-1.26,5.86s-1.94-2.83-1.94-2.83-3.28-1.25-8.42.26c.17.74-.85,3.05-2.15,2.43s-1.25-5.77-1.25-5.84c-.7,4.44-.92,8,1.21,11.4,2.68,4.32,9.35,2.14,11.45-.51s2.61-4.71,2.46-9.42C450.38,340.34,450.35,339.89,450.3,339.46Z" style="fill:#fff;opacity:0.8"></path><path d="M446.68,342.76c-.16,1.68,1.73,1.28,2.07-1.09s-.47-8.13,0-12.22c-.1-4.69.1-9.35-.95-9.52,0,.06,0,.11,0,.17l-.12,2.37a8.81,8.81,0,0,1-.06,1c-.35,3.43-.55,10.11-.57,13.28A48.87,48.87,0,0,1,446.68,342.76Z" style="fill:#1F94DB"></path><path d="M439.25,342.76a51.54,51.54,0,0,1-.35-6c0-3.14-.22-9.74-.57-13.2a7.72,7.72,0,0,1-.16-1.95c0-.47,0-1.07,0-1.57a.41.41,0,0,0,0-.11c-.69.23-.94,2.09-1.09,4.43,0,1.36,0,3,.14,5.09.47,4.09-.35,9.89,0,12.25S439.42,344.44,439.25,342.76Z" style="fill:#1F94DB"></path><path d="M438.56,342.88a.32.32,0,0,0,.14,0,13.84,13.84,0,0,1,8.26,0,.41.41,0,0,0,.51-.21.35.35,0,0,0-.23-.46,14.37,14.37,0,0,0-8.83,0,.34.34,0,0,0-.22.46A.4.4,0,0,0,438.56,342.88Z" style="fill:#fafafa"></path><path d="M438.08,339.14a.3.3,0,0,0,.13,0,17.13,17.13,0,0,1,9.24,0,.41.41,0,0,0,.5-.22.36.36,0,0,0-.24-.46,17.71,17.71,0,0,0-9.77,0,.36.36,0,0,0-.24.46A.4.4,0,0,0,438.08,339.14Z" style="fill:#fafafa"></path><path d="M447.58,335.61a.41.41,0,0,0,.36-.21.35.35,0,0,0-.2-.48c-4.59-1.89-9.53-.13-9.74-.05a.35.35,0,0,0-.22.47.43.43,0,0,0,.52.2s4.84-1.73,9.12,0A.41.41,0,0,0,447.58,335.61Z" style="fill:#fafafa"></path><path d="M447.67,332.31a.4.4,0,0,0,.36-.2.35.35,0,0,0-.19-.48,13.39,13.39,0,0,0-9.93-.1.35.35,0,0,0-.19.48.41.41,0,0,0,.53.17,12.71,12.71,0,0,1,9.25.1A.47.47,0,0,0,447.67,332.31Z" style="fill:#fafafa"></path><path d="M447.75,328.61a.4.4,0,0,0,.36-.2.35.35,0,0,0-.18-.48c-4.72-2.11-9.8-.09-10,0a.35.35,0,0,0-.19.48.41.41,0,0,0,.52.18c.05,0,5-2,9.34,0A.35.35,0,0,0,447.75,328.61Z" style="fill:#ebebeb"></path><path d="M449.23,193.53s.44,10.16.6,26.72-.59,41.1-.59,41.1c.21,2.5,1.8,8.18,2.86,19.18,1.26,13-2.23,49.75-2.23,49.75s-7.78,4.64-13.83-.64c0,0-8.19-51.81-9.82-64.74-1.42-11.28-3.46-30-3.46-30L420,264.49a82.16,82.16,0,0,1,0,9.65c-.35,7.63-4.26,36.08-4.26,36.08s-10.69,3.61-15.46-1.52c0,0-1.54-40.83-1.7-50-.31-18,.31-45.6,1-63.9Z" style="fill:#1F94DB"></path><path d="M449.23,193.53s.44,10.16.6,26.72-.59,41.1-.59,41.1c.21,2.5,1.8,8.18,2.86,19.18,1.26,13-2.23,49.75-2.23,49.75s-7.78,4.64-13.83-.64c0,0-8.19-51.81-9.82-64.74-1.42-11.28-3.46-30-3.46-30L420,264.49a82.16,82.16,0,0,1,0,9.65c-.35,7.63-4.26,36.08-4.26,36.08s-10.69,3.61-15.46-1.52c0,0-1.54-40.83-1.7-50-.31-18,.31-45.6,1-63.9Z" style="fill:#fff;opacity:0.6000000000000001"></path><path d="M422.76,234.85l-1.23-12.56s-9.7-1.3-14.09-5.43a15.91,15.91,0,0,0,11.43,7.22l.48,9.35.94,27.69Z" style="opacity:0.2"></path><path d="M379.78,206.43c2.69-1.55,4.05,1.63,4.14,3.46s-.45,2.87-.1,4,2,2.26,2.75.55,2.3-4,2.44-6.86-.68-6.1-.33-7.92c.45-2.34,10.09-13,12.13-15.31,3.7-4.23,4.2-5.72,5.86-12.41.79-3.2,5.28-19.65,5.28-19.65l2.7-19.2c-6.9.19-14,2.12-16.19,9.35-2.44,7.91-6.62,28.68-6.62,28.68s-11.49,17.4-15,23.65-4.34,15.82-4.34,15.82Z" style="fill:#ffbda7"></path><path d="M414.89,132.87c-4.16.24-6.68.37-9.12,1.4-2.67,1.12-5.84,2.4-8,9.14s-6.32,27.73-6.32,27.73L382.21,186a13,13,0,0,1,6.94,1.57,8.34,8.34,0,0,1,3.78,5.91s8.41-9.2,9.89-10.79,2.54-2.7,4.05-7.84,5.87-23,5.87-23Z" style="fill:#455a64"></path><path d="M415.57,132.74c-6.11-.87-10.62.32-14,3.52s-4.21,6.67-5.65,12.81-3.44,15.45-3.44,15.45,1.88,3.16,7.82,4.41,8.82-.25,8.82-.25Z" style="fill:#1F94DB"></path><path d="M429.94,133.16c2.08.5,13.65,3.37,18.2,5.92,3.44,1.93,4.75,5.57,4.67,9.41-.23,10.18-2.33,33.94-2.33,33.94V211.2c-6.78,4.93-45.12,2.71-51.8-10.77,0,0-.23-42,.71-49.15,1.32-10.13,5.06-17.9,16.18-18.54Z" style="fill:#1F94DB"></path><path d="M429.94,133.16c2.08.5,13.65,3.37,18.2,5.92,3.44,1.93,4.75,5.57,4.67,9.41-.23,10.18-2.33,33.94-2.33,33.94V211.2c-6.78,4.93-45.12,2.71-51.8-10.77,0,0-.23-42,.71-49.15,1.32-10.13,5.06-17.9,16.18-18.54Z" style="fill:#fff;opacity:0.75"></path><path d="M401.55,151.28a29.23,29.23,0,0,0,10.79,2.21V156s-6.87,0-10.79-2.34Z" style="fill:#1F94DB"></path><path d="M401.55,151.28a29.23,29.23,0,0,0,10.79,2.21V156s-6.87,0-10.79-2.34Z" style="fill:#fff;opacity:0.6000000000000001"></path><path d="M417.22,133.53c2.48,2,10.56,2.91,15.15,1.06-1.35,4.81-11.83,11.18-16.27,14.64C414.77,145.86,413.21,137.43,417.22,133.53Z" style="fill:#455a64"></path><path d="M427.65,102.26a13,13,0,1,1-13-13.05A13,13,0,0,1,427.65,102.26Z"></path><path d="M437.16,111.54s-2.11,9.93-3,11.57a4.49,4.49,0,0,1-2.6,2.09l.15-7Z"></path><path d="M434.51,97.31a4.9,4.9,0,0,1,4.05,1.42c1.74,1.78.77,7.35-1.4,12.81l-4,.46Z"></path><path d="M432,112c.8.48,1.25-.36,2.24-1.4s3.54-3.14,6,.34c2.14,3-1,7.7-3.44,8.7-3.12,1.29-4.07-1.27-4.07-1.27l-.32,16.22h0c-1.64,2.47-7.46,5.45-13,4.23-3.54-.78-3.21-3.35-2.11-5.29v-4.79a27.87,27.87,0,0,1-5.88.31c-3.21-.5-5.64-3-6.52-6.45-1.17-4.6-1.36-11.29-.51-21.11,1-12.06,15.44-12.14,23-7.39S432,112,432,112Z" style="fill:#ffbda7"></path><path d="M404,96.45a3.37,3.37,0,0,0,.59.76A9.41,9.41,0,0,0,407.22,99c4.54,2.11,12.26,2,17.15-1.29a7.13,7.13,0,0,0,4.71,6.94,30.49,30.49,0,0,0-.05,6.55c0,.73.61,3.76,2.35,2.66a8.46,8.46,0,0,0,1.52-1.7,25,25,0,0,1,2-2.23c1.37-1.25-.4-12.6-.4-12.6a5.52,5.52,0,0,0-.95-6.13,10.83,10.83,0,0,0-4.1-3c-2.81-1.08-5.73-.79-8.67-.68a13.64,13.64,0,0,1-7.21-1.28c-.83-.47-1.76-1.1-2.65-.77A1.89,1.89,0,0,0,409.84,87a5.87,5.87,0,0,0,.13,1.91,7.94,7.94,0,0,1-1.89-.94,2.82,2.82,0,0,0-2-.43,2.29,2.29,0,0,0-1.47,2.38,6.51,6.51,0,0,0,1.05,2.81,2.11,2.11,0,0,0-2.07,1.8A3,3,0,0,0,404,96.45Z"></path><path d="M434.5,98.19l4.83-2.59a2.66,2.66,0,0,0-3.66-1.21A2.88,2.88,0,0,0,434.5,98.19Z"></path><path d="M417.23,128.74s6.81-1.27,9.32-2.6a10.2,10.2,0,0,0,3.59-4.28,7,7,0,0,1-1.95,4.39c-2,2.18-11,4.4-11,4.4Z" style="fill:#f0997a"></path><path d="M418.57,110.16a1.55,1.55,0,0,0,1.53,1.59,1.6,1.6,0,1,0-1.53-1.59Z"></path><path d="M420.1,105l3.18,1.75a1.9,1.9,0,0,0-.74-2.53A1.77,1.77,0,0,0,420.1,105Z"></path><path d="M419.8,119.16l-4.23,1.59a2.23,2.23,0,0,0,2.88,1.4A2.36,2.36,0,0,0,419.8,119.16Z" style="fill:#f0997a"></path><path d="M405.59,106.13l2.9-2.23a1.75,1.75,0,0,0-2.52-.39A1.93,1.93,0,0,0,405.59,106.13Z"></path><path d="M406.55,110a1.49,1.49,0,1,0,1.49-1.55A1.52,1.52,0,0,0,406.55,110Z"></path><path d="M414.6,107.42l-.86,9.62-5-1.06A17.68,17.68,0,0,1,414.6,107.42Z" style="fill:#f0997a"></path></g><g id="freepik--character--inject-10"><path d="M307.19,320.46v4.32a22.21,22.21,0,0,0,3.28,11.65c.16.27.33.53.5.78l0,.08c.15.22.3.43.46.64A22.29,22.29,0,0,0,327,347l.18,0a3.11,3.11,0,0,0,.33,0l.66.06h.24l.77,0h.27a27.2,27.2,0,0,0,13-4.05l1.9-1.1c16.42-9.47,29.72-32.52,29.72-51.48v-2.19c0-.42,0-.84,0-1.24v-.89a22.27,22.27,0,0,0-2.68-10.63l0,0a4,4,0,0,0-.22-.41l-.17-.31c-.16-.28-.33-.55-.5-.81s-.18-.28-.28-.41l-.23-.33a4.37,4.37,0,0,0-.37-.48l-.21-.26A22.21,22.21,0,0,0,354.17,264a16.9,16.9,0,0,0-2-.12h-.34a27.23,27.23,0,0,0-13,4.05l-1.89,1.1C320.49,278.45,307.19,301.5,307.19,320.46Zm11.14,1.09c0-16,11.24-35.46,25.1-43.46s25.09-1.52,25.09,14.49S357.29,328,343.43,336,318.33,337.56,318.33,321.55Z" style="fill:#455a64"></path><path d="M312.76,323.68v2.19c0,9.38,3.25,16,8.53,19.14l.26.14.16.09.11.06a4,4,0,0,0,.41.21,9.28,9.28,0,0,0,.85.39l.39.16.48.18.43.13c.34.11.69.21,1,.29.18,0,.37.08.56.12l.58.1c.21,0,.43.07.65.09a3.11,3.11,0,0,0,.33,0l.66.06h.24l.77,0c4,0,8.5-1.31,13.27-4.06l1.9-1.1c16.42-9.47,29.72-32.52,29.72-51.48v-2.19c0-.42,0-.84,0-1.24s0-.7-.05-1c0-.13,0-.25,0-.37,0-.31-.05-.61-.08-.92a1.11,1.11,0,0,0,0-.17c0-.35-.07-.7-.12-1s-.08-.62-.14-.92l-.09-.53c-.07-.37-.14-.74-.22-1.1s-.15-.63-.24-.94c-.15-.57-.31-1.12-.5-1.66a0,0,0,0,0,0,0c-.1-.3-.21-.59-.32-.88q-.31-.81-.69-1.56l-.21-.41a4,4,0,0,0-.22-.41l-.17-.31c-.16-.28-.33-.55-.5-.81s-.18-.28-.28-.41l-.23-.33a4.37,4.37,0,0,0-.37-.48,5.45,5.45,0,0,0-.38-.46,4.19,4.19,0,0,0-.39-.45A9.18,9.18,0,0,0,368,271l-.43-.39a8.77,8.77,0,0,0-.9-.71,4.84,4.84,0,0,0-.46-.33l-.48-.31-.11-.06c-.13-.09-.27-.17-.41-.25-5.36-3-12.72-2.51-20.84,2.18l-1.9,1.1C326.07,281.67,312.76,304.72,312.76,323.68Zm5.57-2.13c0-16,11.24-35.46,25.1-43.46s25.09-1.52,25.09,14.49S357.29,328,343.43,336,318.33,337.56,318.33,321.55Z" style="fill:#37474f"></path><path d="M324.77,331.94c4,4.72,10.84,5.39,18.66.88,12.32-7.11,22.31-24.41,22.31-38.64,0-6.35-2-11-5.31-13.61,2.31,2.73,3.65,6.8,3.65,12,0,14.22-10,31.52-22.31,38.64C335,335.15,328.86,335.14,324.77,331.94Z" style="fill:#1F94DB"></path><path d="M324.77,331.94c4,4.72,10.84,5.39,18.66.88,12.32-7.11,22.31-24.41,22.31-38.64,0-6.35-2-11-5.31-13.61,2.31,2.73,3.65,6.8,3.65,12,0,14.22-10,31.52-22.31,38.64C335,335.15,328.86,335.14,324.77,331.94Z" style="opacity:0.2"></path><path d="M318.34,321.55c0,16,11.23,22.49,25.09,14.49s25.1-27.46,25.1-43.46-11.24-22.49-25.1-14.49S318.34,305.55,318.34,321.55Zm2.78-1.61c0-14.22,10-31.52,22.31-38.63s22.31-1.35,22.31,12.88-10,31.52-22.31,38.63S321.12,334.17,321.12,319.94Z" style="fill:#1F94DB"></path><path d="M321.88,312.87c.05-.26.1-.51.16-.76l19.43-5.21.44-.65L327.63,298c.11-.2.23-.4.35-.59l14.28,8.24.34-.71-5.16-19.24.58-.51,5.07,18.93.68-.79,5-24.36c.25-.08.5-.14.74-.2l-4.92,24,.78-.12,13.39-23.19a5.76,5.76,0,0,1,.6.33L346,303l.29.74,18.55-16.45.21.73-18.82,16.68-.33,1,19.26-5.16-.15.75-19.58,5.24-.44.65,14.56,8.41c-.11.2-.22.4-.34.6l-14.57-8.41-.34.71,5.3,19.77-.57.52-5.22-19.47-.68.79L338,335.2l-.74.19,5.06-24.74-.78.12-13.68,23.7c-.2-.11-.4-.23-.59-.36l13.67-23.68-.29-.74-18.7,16.58c-.07-.24-.13-.49-.19-.75l18.95-16.79.33-1Z" style="fill:#ebebeb"></path><path d="M333.77,311.17c0,2.61.91,4.46,2.38,5.35.45.27.82.45,1.22.69a4.43,4.43,0,0,0,2.73.64h0c.19,0,.4,0,.6-.08l.18,0c.16,0,.32-.09.48-.13l.34-.1c.11,0,.22-.09.34-.13s.32-.12.49-.2.57-.28.86-.44c4.62-2.67,8.37-9.16,8.37-14.49a9,9,0,0,0-.05-.93,1.55,1.55,0,0,0,0-.31c0-.19,0-.37-.07-.55l-.09-.36c0-.14-.06-.28-.1-.41s-.09-.26-.14-.38l-.12-.32-.19-.38a1.71,1.71,0,0,0-.13-.23c-.08-.13-.17-.26-.26-.38l-.11-.15a3.8,3.8,0,0,0-.33-.37l-.09-.08a3.14,3.14,0,0,0-.4-.34l0,0,0,0a2.3,2.3,0,0,0-.33-.21c-.4-.24-.78-.42-1.1-.62-1.52-.95-3.66-.87-6,.51C337.52,299.35,333.77,305.83,333.77,311.17Zm10.5,1.73c-.69-1.33-.82-4,0-5s.83.47,3-.66a14.1,14.1,0,0,0,1.46-.89c-.79,1.89-2.8,5.27-4.23,6.39A1,1,0,0,1,344.27,312.9Zm-5-10.29a.85.85,0,0,1,.08-.24c.49-1,3.6-3.61,5.47-4.25a11.64,11.64,0,0,1-2.22,6.25,1.63,1.63,0,0,0-.64-.64l-1.29-.73a2.29,2.29,0,0,0-.35-.16A4.74,4.74,0,0,0,339.24,302.61Zm8.62-4.83A6.32,6.32,0,0,1,349.3,302c-.17,1.59-2.85,3.19-4.49,3.45.06-.82,1.12-1.21,1.82-3.74C347.21,299.66,347.16,298.08,347.86,297.78Zm-10,17.66a.76.76,0,0,1-.08-.11c-.67-1.05,1.9-4.6,3.62-5.95a4.52,4.52,0,0,0,0,2.4c.45,1.64,1.42,2.42.55,3.22C341.3,315.56,339.29,315.81,337.85,315.44Zm-1.7-3.45a15.93,15.93,0,0,1,1.42-6.24,2.16,2.16,0,0,1,2.64-.89,1.68,1.68,0,0,1,.59,1.75c-.44,1.3-1.16.46-3,2.89C337.13,310.42,336.59,311.34,336.15,312Z" style="fill:#e0e0e0"></path><path d="M333.77,311.17c0,2.61.91,4.46,2.38,5.35.45.27.82.45,1.22.69a4.43,4.43,0,0,0,2.73.64h0c.19,0,.4,0,.6-.08l.18,0c.16,0,.32-.09.48-.13l.34-.1c.11,0,.22-.09.34-.13s.32-.12.49-.2.57-.28.86-.44c4.62-2.67,8.37-9.16,8.37-14.49a9,9,0,0,0-.05-.93,1.55,1.55,0,0,0,0-.31c0-.19,0-.37-.07-.55l-.09-.36c0-.14-.06-.28-.1-.41s-.09-.26-.14-.38l-.12-.32-.19-.38a1.71,1.71,0,0,0-.13-.23c-.08-.13-.17-.26-.26-.38l-.11-.15a3.8,3.8,0,0,0-.33-.37l-.09-.08a3.14,3.14,0,0,0-.4-.34l0,0,0,0a2.3,2.3,0,0,0-.33-.21c-.4-.24-.78-.42-1.1-.62-1.52-.95-3.66-.87-6,.51C337.52,299.35,333.77,305.83,333.77,311.17Zm10.5,1.73c-.69-1.33-.82-4,0-5s.83.47,3-.66a14.1,14.1,0,0,0,1.46-.89c-.79,1.89-2.8,5.27-4.23,6.39A1,1,0,0,1,344.27,312.9Zm-5-10.29a.85.85,0,0,1,.08-.24c.49-1,3.6-3.61,5.47-4.25a11.64,11.64,0,0,1-2.22,6.25,1.63,1.63,0,0,0-.64-.64l-1.29-.73a2.29,2.29,0,0,0-.35-.16A4.74,4.74,0,0,0,339.24,302.61Zm8.62-4.83A6.32,6.32,0,0,1,349.3,302c-.17,1.59-2.85,3.19-4.49,3.45.06-.82,1.12-1.21,1.82-3.74C347.21,299.66,347.16,298.08,347.86,297.78Zm-10,17.66a.76.76,0,0,1-.08-.11c-.67-1.05,1.9-4.6,3.62-5.95a4.52,4.52,0,0,0,0,2.4c.45,1.64,1.42,2.42.55,3.22C341.3,315.56,339.29,315.81,337.85,315.44Zm-1.7-3.45a15.93,15.93,0,0,1,1.42-6.24,2.16,2.16,0,0,1,2.64-.89,1.68,1.68,0,0,1,.59,1.75c-.44,1.3-1.16.46-3,2.89C337.13,310.42,336.59,311.34,336.15,312Z" style="opacity:0.2"></path><path d="M335.07,311.89c0,5.34,3.74,7.5,8.36,4.84s8.37-9.16,8.37-14.49-3.75-7.5-8.37-4.84S335.07,306.56,335.07,311.89Zm8.38-6.5c-1,.41-.19-1.23-1.89-1.82-1.33-.48-2.78-.05-2.24-1.2s4.53-4.38,6.18-4.4S344.9,304.79,343.45,305.39Zm7.14-2.65c-.26,2.25-5.52,4.54-5.77,3-.18-1,1-1.22,1.81-4,.62-2.2.51-3.87,1.36-4S350.84,300.5,350.59,302.74Zm-6.3,5.17c.89-1.06.83.47,3-.66,1.71-.88,3.1-2.34,3.08-1.28s-2.76,6.09-4.57,7.5S343,309.46,344.29,307.91Zm-1.69,1c.72.39-.52,1.51,0,3.61.45,1.65,1.41,2.42.55,3.22s-4.56,1-5.42-.39S341.55,308.32,342.6,308.89Zm-6.25,4.61c-.51-.56-.05-5.49,1.22-7.75s5.16-.32,4.51,1.58c-.44,1.3-1.16.47-3,2.89C337.66,312.13,336.87,314.06,336.35,313.5Z" style="fill:#e0e0e0"></path><path d="M343.43,310c-1.41.82-2.56.15-2.56-1.48a5.67,5.67,0,0,1,2.56-4.43c1.41-.82,2.56-.15,2.56,1.48A5.67,5.67,0,0,1,343.43,310Z" style="fill:#455a64"></path><path d="M301.22,324.59a1.22,1.22,0,0,0-1.66-.45l-1,.6a25.46,25.46,0,0,0-10.3,11.17l-3.15,6.64h0l-9.86,20.8a1.22,1.22,0,1,0,2.2,1L287.1,344l12.18-6.91a1.22,1.22,0,0,0-1.2-2.12l-9.16,5.2,1.5-3.17a23,23,0,0,1,9.32-10.11l1-.6A1.21,1.21,0,0,0,301.22,324.59Z" style="fill:#fafafa"></path><path d="M299.12,336.32c3.44,6.53,2.33,14.83,2.2,17.67s1.3,2.28,2.1,0,2.93-11.6-.68-19.73Z" style="fill:#ebebeb"></path><path d="M292.51,356.59c0-5.24,3.68-11.61,8.22-14.23,2.39-1.38,4.52-1.43,6-.43h0l3.51,2-11.79,20L295,362v0C293.48,361.12,292.51,359.27,292.51,356.59Z" style="fill:#455a64"></path><path d="M304.45,344.48c-4.54,2.63-8.22,9-8.22,14.24s3.68,7.37,8.22,4.75,8.22-9,8.22-14.24S309,341.86,304.45,344.48Z" style="fill:#37474f"></path><path d="M304.45,350.63a6.41,6.41,0,0,0-2.89,5c0,1.84,1.29,2.59,2.89,1.67a6.4,6.4,0,0,0,2.89-5C307.34,350.46,306.05,349.71,304.45,350.63Z" style="fill:#263238"></path><path d="M301.56,336.05c3.44,6.53,2.32,14.83,2.2,17.67s1.29,2.28,2.1,0,2.92-11.6-.68-19.73Z" style="fill:#fafafa"></path><polygon points="297.91 339.85 327.24 322.5 327.24 318.86 300.83 334.54 297.91 339.85" style="fill:#37474f"></polygon><polygon points="316.24 399.78 332.74 390.26 279.96 359.77 263.45 369.3 316.24 399.78" style="fill:#1F94DB"></polygon><polygon points="332.74 390.26 332.74 394.06 316.24 403.59 316.24 399.78 332.74 390.26" style="fill:#1F94DB"></polygon><polygon points="332.74 390.26 332.74 394.06 316.24 403.59 316.24 399.78 332.74 390.26" style="opacity:0.30000000000000004"></polygon><polygon points="263.45 369.3 263.45 373.11 316.24 403.59 316.24 399.78 263.45 369.3" style="fill:#1F94DB"></polygon><polygon points="263.45 369.3 263.45 373.11 316.24 403.59 316.24 399.78 263.45 369.3" style="opacity:0.15"></polygon><path d="M354.6,354.78a1.22,1.22,0,0,0-1.67-.45l-1,.6a25.46,25.46,0,0,0-10.3,11.17l-3.14,6.64h0l-9.86,20.8a1.22,1.22,0,0,0,2.2,1l9.68-20.44,12.18-6.91a1.22,1.22,0,0,0-1.2-2.12l-9.16,5.2,1.5-3.17A23,23,0,0,1,353.11,357l1-.6A1.22,1.22,0,0,0,354.6,354.78Z" style="fill:#fafafa"></path><path d="M355.21,368.53c3.44,6.52,2.33,14.83,2.2,17.66s1.3,2.28,2.1,0,2.92-11.59-.68-19.72Z" style="fill:#ebebeb"></path><path d="M348.6,388.8c0-5.24,3.68-11.62,8.22-14.24,2.38-1.37,4.52-1.43,6-.42h0l3.51,2-11.79,20-3.46-2h0C349.57,393.32,348.6,391.47,348.6,388.8Z" style="fill:#455a64"></path><path d="M360.54,376.69c-4.54,2.62-8.22,9-8.22,14.24s3.68,7.36,8.22,4.74,8.22-9,8.22-14.24S365.08,374.07,360.54,376.69Z" style="fill:#37474f"></path><path d="M360.54,382.84a6.4,6.4,0,0,0-2.9,5c0,1.85,1.3,2.6,2.9,1.67a6.37,6.37,0,0,0,2.89-5C363.43,382.66,362.14,381.92,360.54,382.84Z" style="fill:#263238"></path><path d="M357.64,368.26c3.45,6.52,2.33,14.83,2.21,17.66s1.29,2.28,2.09,0,2.93-11.59-.67-19.72Z" style="fill:#fafafa"></path><path d="M413.12,241.34,408.86,234l18-10.4h0a2.08,2.08,0,0,1,2.15.19,6.65,6.65,0,0,1,3,5.2,2.15,2.15,0,0,1-.84,1.92h0l0,0h0Z" style="fill:#455a64"></path><path d="M414,239.4c0,1.92-1.35,2.69-3,1.74a6.67,6.67,0,0,1-3-5.21c0-1.91,1.35-2.69,3-1.73A6.65,6.65,0,0,1,414,239.4Z" style="fill:#37474f"></path><path d="M410.83,235.89a1.1,1.1,0,0,0-.9-.15l-.24.15-12.55,7.24.26.21.84.6a22.3,22.3,0,0,1,1.82,1.38c.17.15.33.31.49.47l11-6.38.46-.26a1.21,1.21,0,0,0,.22-.76A3.22,3.22,0,0,0,410.83,235.89Z" style="fill:#e0e0e0"></path><path d="M374.58,219.25l-4.26-7.36,18-10.39h0a2.08,2.08,0,0,1,2.15.19,6.65,6.65,0,0,1,3,5.21,2.15,2.15,0,0,1-.84,1.91h0l0,0h0Z" style="fill:#455a64"></path><path d="M375.46,217.3c0,1.92-1.35,2.7-3,1.74a6.64,6.64,0,0,1-3-5.21c0-1.91,1.34-2.69,3-1.73A6.65,6.65,0,0,1,375.46,217.3Z" style="fill:#37474f"></path><path d="M372.3,213.8a1.07,1.07,0,0,0-.9-.15l-.24.15L358.6,221l.27.2.84.6c.62.44,1.24.89,1.82,1.39.17.14.32.3.49.46l11-6.38.45-.25a1.17,1.17,0,0,0,.23-.76A3.22,3.22,0,0,0,372.3,213.8Z" style="fill:#e0e0e0"></path><path d="M354.22,233.24l13.11,7.57L307.82,269a14.9,14.9,0,0,0-6.72,10.12L293,331.8a.91.91,0,0,1-1.35.64h0c-.31-.18-.48-.52-.38-1.8l4.66-56a14.49,14.49,0,0,1,5.5-9.49Z" style="fill:#37474f"></path><path d="M356.43,334.05l49.43-28.56a6.91,6.91,0,0,0,3.12-5.41v-2.91a6.91,6.91,0,0,0-3.12-5.41l-49.43-28.54a7,7,0,0,0-6.25,0l-49.43,28.54a6.91,6.91,0,0,0-3.12,5.41v2.95a6.92,6.92,0,0,0,3.12,5.41l49.43,28.52A6.89,6.89,0,0,0,356.43,334.05Z" style="fill:#1F94DB"></path><path d="M356.43,334.05l49.43-28.56a6.91,6.91,0,0,0,3.12-5.41v-2.91a6.91,6.91,0,0,0-3.12-5.41l-49.43-28.54a7,7,0,0,0-6.25,0l-49.43,28.54a6.91,6.91,0,0,0-3.12,5.41v2.95a6.92,6.92,0,0,0,3.12,5.41l49.43,28.52A6.89,6.89,0,0,0,356.43,334.05Z" style="fill:#fff;opacity:0.6000000000000001"></path><path d="M355.51,334.45a5.11,5.11,0,0,0,.92-.4l49.43-28.56a6.91,6.91,0,0,0,3.12-5.41v-2.91a7,7,0,0,0-2.54-5c1.11,1,.92,2.33-.58,3.19l-49.2,28.41Z" style="fill:#1F94DB;opacity:0.6000000000000001"></path><path d="M297.72,297.17v2.95a6.91,6.91,0,0,0,3.13,5.41l49.43,28.53a7,7,0,0,0,5.33.38l1.15-10.67-.24.13a6.86,6.86,0,0,1-6.24,0l-49.43-28.54c-1.51-.86-1.7-2.2-.59-3.19A7,7,0,0,0,297.72,297.17Z" style="fill:#1F94DB;opacity:0.8"></path><path d="M340.38,272.42,389.82,301a6.49,6.49,0,0,0,3.66.72,5.14,5.14,0,0,0,.55-.06h.11l.33-.06h0l.49-.13a4.57,4.57,0,0,0,1.06-.45l2.55-1.47a8.75,8.75,0,0,0,3.75-5.35l7.52-42a4,4,0,0,0,.07-.78c0-.1,0-.21,0-.31a5.4,5.4,0,0,0-.35-1.53,5.47,5.47,0,0,0-1.65-2.36l-.21-.16-.33-.22L358,218.28a7,7,0,0,0-6.25,0l-2.54,1.47a6.76,6.76,0,0,0-1.5,1.23,2.11,2.11,0,0,0-.25.27,8.31,8.31,0,0,0-.91,1.23c-.07.09-.12.19-.18.28l-.14.25-.19.37c-.06.12-.12.25-.17.37s-.09.21-.12.31a.94.94,0,0,0-.06.15,2.29,2.29,0,0,0-.08.28,2.42,2.42,0,0,0-.1.36,1.1,1.1,0,0,0-.06.26l-7.52,42A5.5,5.5,0,0,0,340.38,272.42Z" style="fill:#1F94DB"></path><path d="M340.38,272.42,389.82,301a6.49,6.49,0,0,0,3.66.72,5.14,5.14,0,0,0,.55-.06h.11l.33-.06h0l.49-.13a4.57,4.57,0,0,0,1.06-.45l2.55-1.47a8.75,8.75,0,0,0,3.75-5.35l7.52-42a4,4,0,0,0,.07-.78c0-.1,0-.21,0-.31a5.4,5.4,0,0,0-.35-1.53,5.47,5.47,0,0,0-1.65-2.36l-.21-.16-.33-.22L358,218.28a7,7,0,0,0-6.25,0l-2.54,1.47a6.76,6.76,0,0,0-1.5,1.23,2.11,2.11,0,0,0-.25.27,8.31,8.31,0,0,0-.91,1.23c-.07.09-.12.19-.18.28l-.14.25-.19.37c-.06.12-.12.25-.17.37s-.09.21-.12.31a.94.94,0,0,0-.06.15,2.29,2.29,0,0,0-.08.28,2.42,2.42,0,0,0-.1.36,1.1,1.1,0,0,0-.06.26l-7.52,42A5.5,5.5,0,0,0,340.38,272.42Z" style="fill:#fff;opacity:0.6000000000000001"></path><path d="M401.09,257.25l-7.51,42a2.37,2.37,0,0,1-3.76,1.75l-49.43-28.54a5.49,5.49,0,0,1-2.49-5.35l7.52-42a2.37,2.37,0,0,1,3.76-1.75l49.43,28.54A5.51,5.51,0,0,1,401.09,257.25Z" style="fill:#1F94DB"></path><path d="M401.09,257.25l-7.51,42a2.37,2.37,0,0,1-3.76,1.75l-49.43-28.54a5.49,5.49,0,0,1-2.49-5.35l7.52-42a2.37,2.37,0,0,1,3.76-1.75l49.43,28.54A5.51,5.51,0,0,1,401.09,257.25Z" style="fill:#fff;opacity:0.4"></path><path d="M391.09,301.47a7.31,7.31,0,0,0,2.39.21,5.14,5.14,0,0,0,.55-.06l.44-.07h0l.49-.13a4.57,4.57,0,0,0,1.06-.45l2.55-1.47a8.75,8.75,0,0,0,3.75-5.35l7.52-42a4,4,0,0,0,.07-.78c0-.1,0-.21,0-.31a5.4,5.4,0,0,0-.35-1.53l-8.81,5a5,5,0,0,1,.31,2.69l-7.52,42a2.33,2.33,0,0,1-2.47,2.17A.22.22,0,0,1,391.09,301.47Z" style="fill:#1F94DB;opacity:0.6000000000000001"></path><g id="freepik--character--inject-10"><path d="M318.58,353.86s-1.35,13.8-2.69,15.48c-2.18,2.71-2.91,4.45-6,7.14a29.7,29.7,0,0,1-4.68,3.64c-1,.63-2.57,1.32-2.91,2.51s2,2.55,4.34,2.7a15.41,15.41,0,0,0,7.92-1.52c4.69-2.11,6.89-4,11.32-6.56a9.48,9.48,0,0,0,3.3-3.45c.2-.54-.1-1.53,0-2.71.49-4.44,1.55-10,2.08-14.06Z" style="fill:#9e6767"></path><path d="M329.21,371.13c.73.47.84,2.38.79,3.71s.93,3.05-.95,5.12-5.12,2.32-7.69,5.15-6.5,8.06-13.69,8.55-12.18-2.58-13.19-4.85a2.79,2.79,0,0,1-.09-2.12c.26-.71.67-.87,1.31-1.24,1.34-.77,2.66-1.58,3.94-2.44a59.21,59.21,0,0,0,7.57-5.79c1.49-1.41,2.63-2.88,3.23-2.85a8,8,0,0,1,4.13,1.34c1.95,1,2.89,1.8,3,2.15s-.26.92-.5,1.33l-1,1.66a1.23,1.23,0,0,0-.17.41.38.38,0,0,0,.18.37.52.52,0,0,0,.46-.09,37.13,37.13,0,0,0,5.67-4.54,20.09,20.09,0,0,1,3.24-2.42c.81-.49,1.86-1,2.67-1.5.61-.37.83-.52.93-.81Z" style="fill:#37474f"></path><path d="M289.65,337.82s-1.35,13.8-2.69,15.48c-2.18,2.71-2.91,4.44-6,7.14a30.3,30.3,0,0,1-4.68,3.64c-1,.62-2.57,1.32-2.91,2.51s2,2.55,4.33,2.69a15.43,15.43,0,0,0,7.93-1.52c4.69-2.1,6.88-4,11.32-6.56a9.42,9.42,0,0,0,3.29-3.44c.2-.54-.09-1.53,0-2.72.48-4.43,1.55-10,2.08-14.06Z" style="fill:#9e6767"></path><path d="M300.28,355.09c.73.47.84,2.38.79,3.7s.93,3-.95,5.13-5.12,2.32-7.69,5.15-6.5,8.06-13.69,8.55-12.18-2.58-13.19-4.86a2.76,2.76,0,0,1-.09-2.11c.26-.72.66-.88,1.31-1.24,1.34-.77,2.66-1.58,3.94-2.45a59.75,59.75,0,0,0,7.56-5.78c1.49-1.42,2.64-2.88,3.24-2.85a8,8,0,0,1,4.13,1.34c1.94,1,2.89,1.8,3,2.15s-.26.91-.5,1.32l-1,1.67a1.18,1.18,0,0,0-.17.4.36.36,0,0,0,.18.38.54.54,0,0,0,.45-.09,36.77,36.77,0,0,0,5.67-4.54,20.17,20.17,0,0,1,3.25-2.42c.81-.5,1.86-1,2.67-1.5.61-.37.83-.52.93-.81Z" style="fill:#37474f"></path><path d="M352.68,273.05H336.6s-37.24,20.62-40.45,26.84c-3.8,7.36-8.62,37.67-9.47,45.18,1.56,3,13.05,5.92,16.89,3.85,1.84-5,3.09-9,4.86-14.47,2.93-9.07,3.63-11.07,4.85-15.7.9-3.39,3.09-7.36,5.25-8.41s20-9.2,27.46-13.5C354.63,291.88,352.68,273.05,352.68,273.05Z" style="fill:#455a64"></path><path d="M336,282.87c-.81,4.49,3.5,9.36,2,11.55s-4.94,4.56-10.48,6.9c-12,5.06-14.35,5.69-17.22,12.12S304,340.61,302,344.51,291.19,348,291.19,348h0c4.13,1.53,9.87,2.28,12.37.93,1.84-5,3.09-9,4.86-14.47,2.93-9.07,3.63-11.07,4.85-15.7.9-3.39,3.09-7.36,5.25-8.41,1.28-.63,8.5-3.94,15.61-7.4,2.84-2.45,9.82-8.55,10.31-9.66A24.11,24.11,0,0,1,336,282.87Z" style="opacity:0.1"></path><path d="M379.81,273.91c.63,7.64.1,26.1-6,31.16-4.69,3.86-8.63,5.84-12.72,8.24-6.95,4.08-10.73,5.83-12.46,6.93s-4.9,2.21-6,7.48a141.29,141.29,0,0,1-4.41,19.52c-2.11,6.91-3.81,11.71-5.62,18-5.08,3.22-14.85-.9-16.55-3.1.47-6.54,3.1-37.24,3.89-42.87s1.21-8.64,5.26-12.28,19.24-13.73,19.24-13.73l0-19.37Z" style="fill:#455a64"></path><path d="M351.55,216c-10.41-1.63-15.93,4.79-24.88,13.81C321.91,234.6,315,241.15,315,241.15s-8.13-14.66-8.41-17.2c-.35-3,.82-4.23,1.05-7.51s-.13-5.45.54-6.88-2.06-1.52-3,.26-.87,4.18-1.66,3.81-1.76-5.42-1.44-9.15-1.81-4.52-2.47-3.28a10,10,0,0,0-.87,2.07s-3-.75-4.72,1.51-3.16,5.54-2.69,11,3.58,9.33,4.53,11.64c1.41,3.45,5.53,22.92,11.56,32.73,2.75,4.47,6.93,3.72,10.36,1,5.32-4.26,24.62-19.11,24.62-19.11C348.35,233.2,356.25,220.63,351.55,216Z" style="fill:#9e6767"></path><path d="M353.19,215.61c-4.2-1-9.27-1.62-16.9,4.42s-21.1,20.33-21.1,20.33-2.73-5.49-3.94-7.88-2.07-5.9-3.65-5.61c0,0,.26,1.35-3.66,3.5a7.25,7.25,0,0,1-7.2,0s-1.32-.5,0,4.67,5.76,19.05,8.62,23.87,6.26,7.14,11.88,4,28.29-21.73,28.29-21.73S356.75,227.42,353.19,215.61Z" style="fill:#1F94DB"></path><path d="M353.19,215.61c-4.2-1-9.27-1.62-16.9,4.42s-21.1,20.33-21.1,20.33-2.73-5.49-3.94-7.88-2.07-5.9-3.65-5.61c0,0,.26,1.35-3.66,3.5a7.25,7.25,0,0,1-7.2,0s-1.32-.5,0,4.67,5.76,19.05,8.62,23.87,6.26,7.14,11.88,4,28.29-21.73,28.29-21.73S356.75,227.42,353.19,215.61Z" style="opacity:0.2"></path><path d="M333.49,271.07a20.81,20.81,0,0,0-.32,4.36c.22,1.18,7.64,7.33,15.29,10.41s22,7.16,32,2.46a5,5,0,0,0,0-4.18Z" style="fill:#37474f"></path><path d="M367.33,216c8.2,1.63,11.84,3.5,13.36,5,4.44,6.8,6.84,41.07-.23,63.14-8.68,7.33-39.72-3.68-47-13.05-1.7-5.39,2.72-10.48,2.8-16.61.15-11.31-1.08-16.69,0-22.66,2.24-12.4,8.41-14.37,15.26-15.82A38.28,38.28,0,0,1,367.33,216Z" style="fill:#1F94DB"></path><path d="M343.08,200.76a63.37,63.37,0,0,0,6.45,3.71,44.73,44.73,0,0,0,6.59,2.66c2.41.74,4.35-.14,6.85-.06l0,6.84s.75-1.62,1.6-3.55,1.61-4.22,2.37-6.34a34,34,0,0,0,2.22-8.82,12.11,12.11,0,0,0-.79-5.76,12.82,12.82,0,0,0-1.46-2.48,16.53,16.53,0,0,0-2.33-2.61,20.17,20.17,0,0,0-14-5.09,15.13,15.13,0,0,0-10.79,4.52,11.31,11.31,0,0,0-1.62,2.83,17,17,0,0,0-1.07,6.53,7.9,7.9,0,0,0,.68,3.25,5.42,5.42,0,0,0,2.18,2.27C341,199.36,342,200.08,343.08,200.76Z" style="fill:#e0e0e0"></path><path d="M355.18,184.58c.13,2.13,2.78,6.68,5.94,9.13a21.46,21.46,0,0,0,.25,7.2,4,4,0,0,0,.62,1.41,1.74,1.74,0,0,0,1.32.72c.69,0,.95-.42,1.14-1a18.35,18.35,0,0,1,.93-2.08,3.71,3.71,0,0,1,.58-.81c1-1,4.05-2.41,5.69.83s-.8,8.08-3.28,8.93c-4.27,1.46-5.38-1.44-5.38-1.44l.72,12.62c-1,3.71-7.53,7.63-13,7.25s-3.93-3.78-1.85-6.12l-.39-3.25a21.21,21.21,0,0,1-5.79.13c-2.28-.31-4.25-2.31-5.38-5.69-2.16-6.43-2.4-15.73-1.8-19.88s3-7.81,4.34-8.77c0,.88,1,3.14,4.7,3.52C349.21,187.79,351.93,186.15,355.18,184.58Z" style="fill:#9e6767"></path><path d="M348.47,218c4-.59,7.21-1.33,9.39-2.65,1.61-1,4.06-3.15,4.44-4.14a9.91,9.91,0,0,1-2.93,5c-4.18,3.55-10.67,3.81-10.67,3.81Z" style="fill:#874c4c"></path><path d="M361,196.41c-.17,1.83-2,10.12-4.26,11-3.58,1.45-6.36-.62-10.74-1-2.91-.25-4.77.93-6.73,1.7-.38.15-.82.3-1.24.43a1.49,1.49,0,0,1-1.91-1.17c-.31-1.85-.81-8.26-.84-11.08h0s-.36,10.68.23,13.82,1.21,5.66,3.91,7.32,8.07,2,14.28.17,8.85-5.9,9.33-8.21c1.44-7,.8-7.3,3-10.25C366.91,197.88,361,196.41,361,196.41Z" style="fill:#e0e0e0"></path><path d="M356.09,198.63a.19.19,0,0,0,0-.1s-.06-.05-.09-.08-.24,0-.32,0h-.27a4.4,4.4,0,0,0-.51.05,5.64,5.64,0,0,0-1,.25c-.15.05-.07.39.08.34a4.54,4.54,0,0,1,1-.19h.78c.09,0,.21.05.28,0A.2.2,0,0,0,356.09,198.63Z" style="fill:#874c4c"></path><path d="M354.76,199.7a1.24,1.24,0,0,0-.43,0l-.15.05a1.15,1.15,0,0,0-.17.14c-.07.06-.05.24.05.26l.39.07.33,0,.09,0s.09,0,0,0l.18.06.14.06a.39.39,0,0,0,.24,0,.21.21,0,0,0,.12-.19C355.58,199.87,355.05,199.73,354.76,199.7Z" style="fill:#874c4c"></path><path d="M355,201.38a2.06,2.06,0,0,0-1-.54.09.09,0,0,0-.09,0,.19.19,0,0,0,0,.1c0,.08,0,.2.12.22a1.57,1.57,0,0,1,.23.09l.12,0,.05,0h0l.05,0,.2.14.2.16a.13.13,0,0,0,.19,0A.26.26,0,0,0,355,201.38Z" style="fill:#9e6767"></path><path d="M337,199l-.12-.07-.14-.06-.29-.12a1.79,1.79,0,0,0-.47-.11c-.12,0-.18.08-.18.19a.32.32,0,0,0,.2.29,1.59,1.59,0,0,0,.53.13l.26,0h.2c.06,0,.08-.08.08-.12A.14.14,0,0,0,337,199Z" style="fill:#874c4c"></path><path d="M337,200.35a.14.14,0,0,1,0,.11.13.13,0,0,1-.1.06h-.12l-.1.05,0,0,.06,0-.1.05-.06,0,0,0a.26.26,0,0,1-.31-.1.48.48,0,0,1-.08-.16.28.28,0,0,1,0-.18.41.41,0,0,1,.17-.15.45.45,0,0,1,.2,0,.7.7,0,0,1,.35.09.36.36,0,0,1,.11.1A.28.28,0,0,1,337,200.35Z" style="fill:#874c4c"></path><path d="M350.94,208.89a1.17,1.17,0,0,0-.24-.38.77.77,0,0,0-.61-.3.37.37,0,0,0-.32.1.22.22,0,0,0,0,.08s0,.07,0,.09.07,0,.11,0a.81.81,0,0,1,.63.23c.09.1.14.24.23.33s.13.09.19,0A.21.21,0,0,0,350.94,208.89Z" style="opacity:0.1"></path><path d="M349.48,199.6a1.45,1.45,0,1,0,1.41-1.54A1.48,1.48,0,0,0,349.48,199.6Z" style="fill:#263238"></path><path d="M349.77,194.83l3.6,1.26a2,2,0,0,0-1.21-2.49A1.86,1.86,0,0,0,349.77,194.83Z" style="fill:#e0e0e0"></path><path d="M349.82,209.13l-3.42,1.64a1.85,1.85,0,0,0,2.5.95A2,2,0,0,0,349.82,209.13Z" style="fill:#874c4c"></path><path d="M348,211.89a2,2,0,0,1,1.85-2H350a1.94,1.94,0,0,1-1.09,1.83A1.73,1.73,0,0,1,348,211.89Z" style="fill:#f28f8f"></path><path d="M336.68,197l3.4-1.54a1.8,1.8,0,0,0-2.42-.91A1.89,1.89,0,0,0,336.68,197Z" style="fill:#e0e0e0"></path><path d="M337.75,200a1.46,1.46,0,1,0,1.42-1.55A1.49,1.49,0,0,0,337.75,200Z" style="fill:#263238"></path><path d="M345,205.19l-5.39-.94a17.84,17.84,0,0,1,5.41-8.33Z" style="fill:#874c4c"></path></g><path d="M407.31,266.44l-.89,5-45.14,35.83a14.89,14.89,0,0,0-5.58,10.43l-5.35,55.45a.91.91,0,0,0,1.41.83h0L369,363.88v-3.64l-14.36,8.39L361,321.18a14.83,14.83,0,0,1,6.72-10.11l38.5-24.35A12.45,12.45,0,0,0,407.31,266.44Z" style="fill:#37474f"></path><path d="M400.59,264.12c-1.11-7.82-5.91-24.73-7.63-30.88-2.8-10-6.14-12.63-16.22-14.6-3.6,2.85-3.33,15.33,1.52,24.94l7,25s-1.38,1-7.28,6.26c-5.3,4.71-7.39,6.29-9.77,8.1-2.55,1.94-4.81,3.57-6.68,5.33-.87.82-8.12,10-8,11.8.13,1.58,1.59,2.75,4.48,3.17,2.64.38,4.51-1,6.32-2.75.29-.28.58-.59.85-.89a14,14,0,0,1,3.67-2.91,19.32,19.32,0,0,0,3.34-2.22c1.41-1.14,1.86-2.49,3.91-3.8s14.12-8.94,20.65-13.09C402.09,274.28,401.73,272.07,400.59,264.12Z" style="fill:#9e6767"></path><path d="M376.35,218.49c3.41.41,8.56.75,11.72,4s3.93,6.36,6.57,15.14a235.9,235.9,0,0,1,6.65,27.43c1.43,8.57,1.19,9.39-3.22,12.61s-13.47,10.2-16.29,9.45a7.3,7.3,0,0,0-2.43-6.65c-3.26-3-6.24-1.37-6.24-1.37s-.47-.91,1.91-2.71,9.64-8,9.64-8-7.79-26.24-8.72-28.47S371.15,226.84,376.35,218.49Z" style="fill:#1F94DB"></path><path d="M376.35,218.49c3.41.41,8.56.75,11.72,4s3.93,6.36,6.57,15.14a235.9,235.9,0,0,1,6.65,27.43c1.43,8.57,1.19,9.39-3.22,12.61s-13.47,10.2-16.29,9.45a7.3,7.3,0,0,0-2.43-6.65c-3.26-3-6.24-1.37-6.24-1.37s-.47-.91,1.91-2.71,9.64-8,9.64-8-7.79-26.24-8.72-28.47S371.15,226.84,376.35,218.49Z" style="opacity:0.2"></path><path d="M366.16,354.69V359a22.12,22.12,0,0,0,3.29,11.65c.16.27.32.52.49.78l.06.08.45.64a22.3,22.3,0,0,0,15.56,9l.17,0,.33,0,.66.06h.25c.25,0,.51,0,.77,0h.27a27.1,27.1,0,0,0,13-4l1.89-1.1c16.42-9.47,29.72-32.52,29.72-51.48v-2.19c0-.42,0-.84,0-1.25v-.88a22.15,22.15,0,0,0-2.68-10.63l0,0-.22-.42c-.06-.1-.12-.2-.17-.3-.16-.28-.33-.55-.5-.82s-.18-.27-.29-.41l-.23-.33q-.17-.24-.36-.48l-.21-.25a22.28,22.28,0,0,0-15.23-8.5,18.9,18.9,0,0,0-2-.12h-.34a27.2,27.2,0,0,0-13,4.05l-1.9,1.1C379.46,312.68,366.16,335.73,366.16,354.69Zm11.15,1.09c0-16,11.23-35.46,25.09-43.47s25.1-1.51,25.1,14.49-11.24,35.47-25.1,43.47S377.31,371.79,377.31,355.78Z" style="fill:#455a64"></path><path d="M371.73,357.91v2.19c0,9.37,3.26,16,8.54,19.13.09,0,.17.11.26.15a.83.83,0,0,0,.16.09l.11.06c.13.07.27.15.41.21a8,8,0,0,0,.84.39l.4.16.47.17.44.14a10.52,10.52,0,0,0,1,.29c.18.05.36.08.55.12l.58.1c.21,0,.43.07.65.09l.33,0,.66.06h.25c.25,0,.51,0,.77,0,4,0,8.5-1.3,13.27-4.05l1.89-1.1c16.42-9.47,29.72-32.52,29.72-51.48v-2.19c0-.42,0-.84,0-1.25s0-.69-.05-1l0-.38c0-.3,0-.61-.07-.91a1,1,0,0,1,0-.17c0-.36-.08-.7-.13-1s-.08-.62-.13-.92l-.09-.53c-.07-.37-.15-.74-.23-1.1s-.15-.63-.23-.94c-.15-.57-.32-1.13-.5-1.66,0,0,0,0,0,0-.09-.29-.2-.58-.32-.87q-.32-.81-.69-1.56c-.06-.14-.13-.28-.2-.41l-.22-.42c-.06-.1-.12-.2-.17-.3-.16-.28-.33-.55-.5-.82s-.18-.27-.29-.41l-.23-.33q-.17-.24-.36-.48l-.38-.46a5.34,5.34,0,0,0-.39-.44,9.29,9.29,0,0,0-.83-.83l-.42-.39a10,10,0,0,0-.9-.71,5,5,0,0,0-.47-.33,5.66,5.66,0,0,0-.48-.31l-.1-.06-.41-.25c-5.37-3-12.73-2.51-20.85,2.18l-1.89,1.09C385,315.9,371.73,339,371.73,357.91Zm5.58-2.13c0-16,11.23-35.46,25.09-43.47s25.1-1.51,25.1,14.49-11.24,35.47-25.1,43.47S377.31,371.79,377.31,355.78Z" style="fill:#37474f"></path><path d="M383.74,366.16c4,4.73,10.85,5.4,18.66.89,12.33-7.11,22.31-24.41,22.31-38.64,0-6.36-2-11-5.3-13.61,2.3,2.72,3.64,6.79,3.64,12,0,14.23-10,31.53-22.31,38.64C393.93,369.38,387.83,369.37,383.74,366.16Z" style="fill:#1F94DB"></path><path d="M383.74,366.16c4,4.73,10.85,5.4,18.66.89,12.33-7.11,22.31-24.41,22.31-38.64,0-6.36-2-11-5.3-13.61,2.3,2.72,3.64,6.79,3.64,12,0,14.23-10,31.53-22.31,38.64C393.93,369.38,387.83,369.37,383.74,366.16Z" style="opacity:0.2"></path><path d="M377.31,355.78c0,16,11.24,22.49,25.1,14.49s25.09-27.46,25.09-43.47-11.24-22.49-25.09-14.48S377.31,339.78,377.31,355.78Zm2.79-1.61c0-14.23,10-31.52,22.3-38.64s22.31-1.34,22.31,12.88-10,31.53-22.31,38.64S380.1,368.4,380.1,354.17Z" style="fill:#1F94DB"></path><path d="M380.85,347.09c0-.25.11-.5.16-.75l19.43-5.21.45-.65-14.29-8.24.35-.59,14.28,8.24.34-.71-5.15-19.24.57-.51,5.07,18.92.69-.78,5-24.37.75-.2-4.92,24,.78-.11,13.39-23.19q.3.15.6.33l-13.4,23.2.29.73,18.55-16.44c.08.24.15.48.21.73L405.17,339l-.34,1,19.26-5.15c0,.25-.09.5-.14.75l-19.59,5.24-.44.65,14.56,8.41-.33.6L403.58,342l-.34.7,5.3,19.78L408,363l-5.21-19.46-.69.78-5.13,25.07c-.25.08-.49.14-.74.2l5.06-24.74-.78.12-13.68,23.69-.59-.35,13.68-23.69-.29-.73-18.7,16.58c-.07-.24-.13-.49-.19-.75L399.64,343l.33-1Z" style="fill:#ebebeb"></path><path d="M392.75,345.39c0,2.62.9,4.47,2.37,5.36.46.27.82.45,1.23.69a4.33,4.33,0,0,0,2.72.63h0a4.14,4.14,0,0,0,.6-.09l.19,0,.47-.13.34-.1.34-.13.5-.2c.28-.13.56-.28.85-.45,4.62-2.67,8.37-9.15,8.37-14.49,0-.32,0-.63,0-.93,0-.1,0-.2,0-.31s-.05-.37-.08-.54-.06-.24-.08-.36-.07-.28-.11-.41-.09-.26-.14-.39a2,2,0,0,0-.12-.31c-.06-.13-.12-.26-.19-.39l-.12-.22a3.62,3.62,0,0,0-.26-.38,1,1,0,0,0-.11-.15c-.11-.13-.22-.26-.33-.37l-.09-.08a3.21,3.21,0,0,0-.41-.34l0,0-.06,0-.32-.21c-.41-.24-.79-.41-1.1-.61-1.53-.95-3.66-.87-6,.5C396.49,333.57,392.75,340.06,392.75,345.39Zm10.5,1.74c-.7-1.34-.83-4,0-5s.83.47,3-.66a16.6,16.6,0,0,0,1.46-.89c-.79,1.89-2.8,5.27-4.24,6.39A1.38,1.38,0,0,1,403.25,347.13Zm-5-10.3a1.86,1.86,0,0,1,.09-.24c.48-1,3.59-3.6,5.47-4.24a11.59,11.59,0,0,1-2.23,6.25,1.63,1.63,0,0,0-.64-.64l-1.28-.73a2,2,0,0,0-.36-.16A5.27,5.27,0,0,0,398.21,336.83Zm8.62-4.82a6.33,6.33,0,0,1,1.45,4.24c-.18,1.59-2.85,3.19-4.5,3.45.07-.82,1.13-1.21,1.83-3.74C406.18,333.89,406.14,332.31,406.83,332Zm-10,17.65a.43.43,0,0,1-.09-.1c-.66-1.05,1.91-4.6,3.62-5.95a4.4,4.4,0,0,0,0,2.39c.44,1.65,1.41,2.43.54,3.22C400.27,349.79,398.26,350,396.83,349.66Zm-1.7-3.45a15.71,15.71,0,0,1,1.42-6.23,2.14,2.14,0,0,1,2.63-.89,1.66,1.66,0,0,1,.59,1.75c-.43,1.29-1.16.46-3,2.89C396.1,344.64,395.56,345.57,395.13,346.21Z" style="fill:#e0e0e0"></path><path d="M392.75,345.39c0,2.62.9,4.47,2.37,5.36.46.27.82.45,1.23.69a4.33,4.33,0,0,0,2.72.63h0a4.14,4.14,0,0,0,.6-.09l.19,0,.47-.13.34-.1.34-.13.5-.2c.28-.13.56-.28.85-.45,4.62-2.67,8.37-9.15,8.37-14.49,0-.32,0-.63,0-.93,0-.1,0-.2,0-.31s-.05-.37-.08-.54-.06-.24-.08-.36-.07-.28-.11-.41-.09-.26-.14-.39a2,2,0,0,0-.12-.31c-.06-.13-.12-.26-.19-.39l-.12-.22a3.62,3.62,0,0,0-.26-.38,1,1,0,0,0-.11-.15c-.11-.13-.22-.26-.33-.37l-.09-.08a3.21,3.21,0,0,0-.41-.34l0,0-.06,0-.32-.21c-.41-.24-.79-.41-1.1-.61-1.53-.95-3.66-.87-6,.5C396.49,333.57,392.75,340.06,392.75,345.39Zm10.5,1.74c-.7-1.34-.83-4,0-5s.83.47,3-.66a16.6,16.6,0,0,0,1.46-.89c-.79,1.89-2.8,5.27-4.24,6.39A1.38,1.38,0,0,1,403.25,347.13Zm-5-10.3a1.86,1.86,0,0,1,.09-.24c.48-1,3.59-3.6,5.47-4.24a11.59,11.59,0,0,1-2.23,6.25,1.63,1.63,0,0,0-.64-.64l-1.28-.73a2,2,0,0,0-.36-.16A5.27,5.27,0,0,0,398.21,336.83Zm8.62-4.82a6.33,6.33,0,0,1,1.45,4.24c-.18,1.59-2.85,3.19-4.5,3.45.07-.82,1.13-1.21,1.83-3.74C406.18,333.89,406.14,332.31,406.83,332Zm-10,17.65a.43.43,0,0,1-.09-.1c-.66-1.05,1.91-4.6,3.62-5.95a4.4,4.4,0,0,0,0,2.39c.44,1.65,1.41,2.43.54,3.22C400.27,349.79,398.26,350,396.83,349.66Zm-1.7-3.45a15.71,15.71,0,0,1,1.42-6.23,2.14,2.14,0,0,1,2.63-.89,1.66,1.66,0,0,1,.59,1.75c-.43,1.29-1.16.46-3,2.89C396.1,344.64,395.56,345.57,395.13,346.21Z" style="opacity:0.2"></path><path d="M394,346.12c0,5.33,3.74,7.5,8.36,4.83s8.37-9.15,8.37-14.49S407,329,402.4,331.63,394,340.79,394,346.12Zm8.38-6.5c-1,.41-.19-1.23-1.88-1.83-1.34-.47-2.79,0-2.24-1.2s4.52-4.37,6.18-4.39S403.88,339,402.42,339.62Zm7.14-2.65c-.25,2.25-5.52,4.54-5.77,3-.17-1.05,1-1.22,1.82-4,.61-2.2.51-3.87,1.36-4S409.82,334.73,409.56,337Zm-6.29,5.17c.88-1.06.83.47,3-.66,1.7-.88,3.1-2.34,3.08-1.28s-2.77,6.09-4.57,7.5S402,343.68,403.27,342.14Zm-1.7,1c.72.4-.52,1.52,0,3.61.45,1.66,1.42,2.43.55,3.23s-4.55,1-5.42-.39S400.52,342.54,401.57,343.11Zm-6.24,4.62c-.52-.57-.05-5.49,1.22-7.75s5.15-.32,4.5,1.58c-.44,1.29-1.16.46-3,2.89C396.64,346.35,395.84,348.29,395.33,347.73Z" style="fill:#e0e0e0"></path><path d="M402.4,344.25c-1.41.81-2.55.15-2.55-1.48a5.63,5.63,0,0,1,2.56-4.43c1.41-.82,2.55-.16,2.55,1.47A5.65,5.65,0,0,1,402.4,344.25Z" style="fill:#455a64"></path></g><path d="M446,138c5.51,1.69,6.73,3.06,8.27,5.74s2.43,6.81,1.52,17.47c-.82,9.76-1.63,18.71-3,27.53-.71,4.73-1.84,7.19-4.19,11.81-3.64,7.15-8.83,16.46-9.9,19.44-1.6,4.45-3.54,11.68-6.7,13.76s-3.88,1.78-5.31,3.07-3.36,1.72-5.83,0c1-.57,2-1.72,1.47-4.86s-3.07-4.06-3.53-3.76l-3.72,2.14s-.78-2.45,2.13-5.12,7.8-4.3,9.24-6.62,10.2-28.37,10.2-28.37l2.66-34.84S438.6,144.67,446,138Z" style="fill:#ffbda7"></path><path d="M446,138s5.78,1.55,7.86,4.42c2.84,3.92,2.71,9.76,2.3,17.91s-2.47,25.21-3.33,30.12-10,21.2-10,21.2-1.09-2.08-4.79-4.09a10.13,10.13,0,0,0-6.89-1.17l5.09-15.71s2-31.3,2.19-36.09S440,142.46,446,138Z" style="fill:#455a64"></path><path d="M444,137.26c4.09.87,7.69,2.46,9.41,4.36s3.52,4.37,3.07,14.34-1.92,23.3-1.92,23.3a17,17,0,0,1-8.95,1.13,20.83,20.83,0,0,1-8.75-2.9s1.22-20.49,1.52-24.84S439.75,142.32,444,137.26Z" style="fill:#1F94DB"></path><path id="freepik--Thumb--inject-10" d="M388.68,199.68l-8.9,6.75c2.69-1.55,4.05,1.63,4.14,3.46s-.45,2.87-.1,4,2,2.26,2.75.55,2.3-4,2.44-6.86S388.33,201.5,388.68,199.68Z" style="fill:#ffbda7"></path></g></g><g id="freepik--character-1--inject-10"><g id="freepik--character--inject-10"><g id="freepik--Chair--inject-10"><path d="M172.17,318.66h0a9.51,9.51,0,0,1-4.63,9.8l-54.11,28.22-.16,3.12-2.46,1.42,3.17,1.83,59.82-34.63Z" style="fill:#37474f"></path><path d="M115.66,376.81h0c-.34-4.16,1.14-8.34,4.75-10.43l48.77-28.15a4.58,4.58,0,0,1,6.81,3.21h0L172.73,322h0a9.33,9.33,0,0,1-4.53,9.61l-50.49,29.18a2.41,2.41,0,0,1-3.78-2l-.26-2.68Z" style="fill:#263238"></path><path d="M116.72,243.6l-13.82,8,59,37.29A15.69,15.69,0,0,1,169,299.54l8.59,55.61a1,1,0,0,0,1.43.68h0c.32-.19.51-.54.4-1.9l-4.91-59.09a15.3,15.3,0,0,0-5.8-10Z" style="fill:#455a64"></path><path d="M125.26,261.81V250.37L158.84,277c-3.24,3.61-5.69,3.28-9.55,2C145.2,277.57,125.26,261.81,125.26,261.81Z" style="opacity:0.15"></path><path d="M47.75,328.39l4.61-10.64h0l.13-.29h0l.21-.49-.21.49A4.62,4.62,0,0,0,59,323.3L61.35,322l3.09,1.79-6.18,3.57,51,29.44-1.36-8.13,2,12.2L55.16,329.11l-3.39,2Z" style="fill:#263238"></path><path d="M110.6,357.53,58.47,327.41a7.29,7.29,0,0,1-3.3-5.71v-3.07a7.29,7.29,0,0,1,3.3-5.71l52.13-30.1a7.29,7.29,0,0,1,6.59,0l52.14,30.1a7.28,7.28,0,0,1,3.29,5.71v3.11a7.28,7.28,0,0,1-3.29,5.71l-52.14,30.09A7.26,7.26,0,0,1,110.6,357.53Z" style="fill:#1F94DB"></path><path d="M111.56,358a5.17,5.17,0,0,1-1-.42L58.47,327.41a7.29,7.29,0,0,1-3.3-5.71v-3.07a7.41,7.41,0,0,1,2.68-5.27c-1.17,1.05-1,2.45.62,3.37l51.88,29.95Z" style="fill:#1F94DB"></path><path d="M111.56,358a5.17,5.17,0,0,1-1-.42L58.47,327.41a7.29,7.29,0,0,1-3.3-5.71v-3.07a7.41,7.41,0,0,1,2.68-5.27c-1.17,1.05-1,2.45.62,3.37l51.88,29.95Z" style="opacity:0.25"></path><path d="M172.62,318.63v3.11a7.27,7.27,0,0,1-3.29,5.71l-52.14,30.09a7.38,7.38,0,0,1-5.63.4l-1.21-11.26.25.15a7.29,7.29,0,0,0,6.59,0l52.14-30.1c1.58-.92,1.79-2.33.61-3.37A7.37,7.37,0,0,1,172.62,318.63Z" style="fill:#1F94DB"></path><path d="M172.62,318.63v3.11a7.27,7.27,0,0,1-3.29,5.71l-52.14,30.09a7.38,7.38,0,0,1-5.63.4l-1.21-11.26.25.15a7.29,7.29,0,0,0,6.59,0l52.14-30.1c1.58-.92,1.79-2.33.61-3.37A7.37,7.37,0,0,1,172.62,318.63Z" style="opacity:0.1"></path><path d="M129.15,293.53,77,323.63a6.92,6.92,0,0,1-3.86.76,5.42,5.42,0,0,1-.58-.06l-.12,0-.34-.06h0c-.17,0-.34-.08-.52-.14a5.62,5.62,0,0,1-1.12-.47l-2.68-1.55a9.3,9.3,0,0,1-4-5.65l-7.92-44.25a4.47,4.47,0,0,1-.07-.82c0-.11,0-.22,0-.33a5.67,5.67,0,0,1,.36-1.62,5.92,5.92,0,0,1,1.74-2.49l.23-.17c.11-.08.23-.15.35-.22l52.13-30.1a7.29,7.29,0,0,1,6.59,0l2.68,1.54a7.51,7.51,0,0,1,1.59,1.29l.26.3a10,10,0,0,1,1,1.29c.07.1.13.2.19.3l.14.26.21.39c.06.13.12.26.17.39s.1.22.14.33a.75.75,0,0,1,0,.16,1.4,1.4,0,0,1,.09.29c0,.12.08.25.11.38a2.61,2.61,0,0,1,.06.27l7.93,44.27A5.8,5.8,0,0,1,129.15,293.53Z" style="fill:#1F94DB"></path><path d="M65.12,277.53l7.93,44.26a2.49,2.49,0,0,0,4,1.84l52.14-30.1a5.8,5.8,0,0,0,2.62-5.65l-7.93-44.26a2.5,2.5,0,0,0-4-1.84l-52.13,30.1A5.8,5.8,0,0,0,65.12,277.53Z" style="fill:#1F94DB"></path><path d="M65.12,277.53l7.93,44.26a2.49,2.49,0,0,0,4,1.84l52.14-30.1a5.8,5.8,0,0,0,2.62-5.65l-7.93-44.26a2.5,2.5,0,0,0-4-1.84l-52.13,30.1A5.8,5.8,0,0,0,65.12,277.53Z" style="opacity:0.1"></path><path d="M75.67,324.16a7.83,7.83,0,0,1-2.52.23,5.42,5.42,0,0,1-.58-.06l-.46-.08h0c-.17,0-.34-.08-.52-.14a5.62,5.62,0,0,1-1.12-.47l-2.68-1.55a9.3,9.3,0,0,1-4-5.65l-7.92-44.25a4.47,4.47,0,0,1-.07-.82c0-.11,0-.22,0-.33a5.67,5.67,0,0,1,.36-1.62l9.3,5.29a5.25,5.25,0,0,0-.33,2.83l7.93,44.26a2.47,2.47,0,0,0,2.61,2.29A.22.22,0,0,0,75.67,324.16Z" style="fill:#1F94DB"></path><path d="M75.67,324.16a7.83,7.83,0,0,1-2.52.23,5.42,5.42,0,0,1-.58-.06l-.46-.08h0c-.17,0-.34-.08-.52-.14a5.62,5.62,0,0,1-1.12-.47l-2.68-1.55a9.3,9.3,0,0,1-4-5.65l-7.92-44.25a4.47,4.47,0,0,1-.07-.82c0-.11,0-.22,0-.33a5.67,5.67,0,0,1,.36-1.62l9.3,5.29a5.25,5.25,0,0,0-.33,2.83l7.93,44.26a2.47,2.47,0,0,0,2.61,2.29A.22.22,0,0,0,75.67,324.16Z" style="opacity:0.25"></path></g><path id="freepik--shadow--inject-10" d="M93.81,329.18c-4.25-2.76-8.5-4.64-10-9.49-4.64-1.19-7-7.41-14.27-48.93,0,0-6.47-4.46-8.68-5.63l49.72-28.7a7.29,7.29,0,0,1,6.59,0l2.68,1.54a7.51,7.51,0,0,1,1.59,1.29l.26.3a10,10,0,0,1,1,1.29c.07.1.13.2.19.3l.15.26.2.39c.06.13.12.26.17.39s.09.22.13.33a.44.44,0,0,1,.06.16,1.4,1.4,0,0,1,.09.29c0,.12.08.25.11.38a2.61,2.61,0,0,1,.06.27l7.93,44.27a5.41,5.41,0,0,1-.45,3.09l38,21.94a7.28,7.28,0,0,1,3.29,5.71v3.11a7.28,7.28,0,0,1-3.29,5.71L124.4,353.38c-.29-6.7-.74-10.29-.74-10.29C116.28,340.41,100.34,333.42,93.81,329.18Z" style="opacity:0.1"></path><g id="freepik--character--inject-10"><g id="freepik--Bottom--inject-10"><path d="M146.72,372.9s.16,12.86,1.27,14.51c1.8,2.68,2.34,4.34,5,7.07a28.62,28.62,0,0,0,4.05,3.73c.88.66,2.29,1.43,2.5,2.55s-2.09,2.2-4.23,2.15a14.48,14.48,0,0,1-7.23-2c-4.18-2.32-6.07-4.21-10-7a8.76,8.76,0,0,1-2.79-3.44c-.14-.52.22-1.41.19-2.51-.1-4.14-.64-9.38-.82-13.15Z" style="fill:#ffa8a7"></path><path d="M135.5,388c-.72.37-1,2.13-1,3.36s-1.11,2.74.47,4.81,4.56,2.54,6.72,5.36,5.4,8,12,9,11.5-1.41,12.62-3.43a2.61,2.61,0,0,0,.25-1.95c-.19-.68-.55-.86-1.11-1.25-1.19-.82-2.35-1.67-3.47-2.57a55.92,55.92,0,0,1-6.55-5.94c-1.27-1.43-2.22-2.87-2.78-2.89a7.41,7.41,0,0,0-3.93.91c-1.89.8-2.82,1.43-3,1.75s.16.86.36,1.26l.78,1.61a.93.93,0,0,1,.12.39.31.31,0,0,1-.19.33.46.46,0,0,1-.41-.12,34.1,34.1,0,0,1-4.9-4.64,19,19,0,0,0-2.82-2.49c-.72-.52-1.64-1.07-2.36-1.6-.54-.39-.73-.54-.79-.82Z" style="fill:#455a64"></path><path d="M178.35,356.67s.77,12.83,2,14.43c1.93,2.59,2.55,4.22,5.33,6.83a27.4,27.4,0,0,0,4.22,3.53c.9.62,2.35,1.32,2.62,2.43s-2,2.29-4.13,2.35a14.47,14.47,0,0,1-7.32-1.69c-4.28-2.11-6.26-3.92-10.29-6.48a8.78,8.78,0,0,1-2.94-3.3c-.17-.51.14-1.42.06-2.52-.3-4.12-1.08-9.34-1.44-13.1Z" style="fill:#ffa8a7"></path><path d="M167.86,372.29c-.7.41-.87,2.18-.87,3.41s-1,2.79.71,4.78,4.67,2.32,7,5,5.76,7.69,12.43,8.4,11.42-2,12.43-4a2.53,2.53,0,0,0,.16-2c-.21-.67-.58-.83-1.17-1.2-1.22-.75-2.42-1.55-3.58-2.4a55,55,0,0,1-6.83-5.62c-1.34-1.36-2.35-2.77-2.91-2.76a7.55,7.55,0,0,0-3.89,1.1c-1.84.89-2.75,1.57-2.9,1.89s.21.85.42,1.24l.86,1.58a1,1,0,0,1,.14.38.34.34,0,0,1-.18.34.48.48,0,0,1-.42-.1,34.94,34.94,0,0,1-5.11-4.4,18.93,18.93,0,0,0-2.93-2.36c-.74-.49-1.69-1-2.44-1.48-.55-.37-.75-.51-.83-.78Z" style="fill:#455a64"></path><path d="M130.66,287.56,83.37,296.2c1,7.68,1.43,13.06,5.9,19.29,4.61,6.44,12.7,10.32,23.09,16.3,8.49,4.88,14.82,9.3,14.82,9.3l1.44,32s2.65,6,13.68,5.74c18.28-.5,38.36-16.15,38.88-26.28,0,0,.06-3.13-1.09-17.33-1-12.8-1.07-23.67-10.3-30.35C161.75,299.06,142.3,289.17,130.66,287.56Z" style="fill:#37474f"></path></g><g id="freepik--Top--inject-10"><path d="M127.49,239c6.74-.85,10.32-.72,13.66,5.44a221.5,221.5,0,0,1,10.15,22.8L167,278.28s-.64,9.47-7.81,10.06c-.58-.28-11.66-3.55-16.29-5.25-5.88-2.16-8.32-2.53-9.82-7.58S127.49,239,127.49,239Z" style="fill:#1F94DB"></path><path d="M127.49,239c6.74-.85,10.32-.72,13.66,5.44a221.5,221.5,0,0,1,10.15,22.8L167,278.28s-.64,9.47-7.81,10.06c-.58-.28-11.66-3.55-16.29-5.25-5.88-2.16-8.32-2.53-9.82-7.58S127.49,239,127.49,239Z" style="fill:#fff;opacity:0.25"></path><path d="M109.14,240.41c-5.55.91-10.11,1.84-12.94,2.63-5.27,1.45-12.56,19.6-13.41,37.6-.45,9.71-1.25,27.72,6.35,36,7.79-10.84,34.7-26.41,56.16-24.8,0,0-3.2-7-8.57-9.79,0,0,3.13-5,2.66-8.65,0,0,5-1.46,5.21-8.25.21-6.19-6.67-17.86-16.15-25.24l-7-.64A115.75,115.75,0,0,0,109.14,240.41Z" style="fill:#1F94DB"></path><path d="M109.14,240.41c-5.55.91-10.11,1.84-12.94,2.63-5.27,1.45-12.56,19.6-13.41,37.6-.45,9.71-1.25,27.72,6.35,36,7.79-10.84,34.7-26.41,56.16-24.8,0,0-3.2-7-8.57-9.79,0,0,3.13-5,2.66-8.65,0,0,5-1.46,5.21-8.25.21-6.19-6.67-17.86-16.15-25.24l-7-.64A115.75,115.75,0,0,0,109.14,240.41Z" style="fill:#fff;opacity:0.4"></path><path d="M105.19,241c-2.24-.38-5.32-2.07-9.9-.55-6.25,2.06-9,6.15-7.62,14.27,1.55,9.29,6.59,28.35,8.59,34.95,1.69,5.55,2,11.06,12.57,10.74,8.12-.24,20.94-1.41,25.52-1.78,5.75-.47,8-2.42,8-2.42l-1.56-16.17s-1.41-1.46-7.82-.68c-5.35.65-19.31,1.24-19.31,1.24L109,261.73Z" style="fill:#1F94DB"></path><path d="M105.19,241c-2.24-.38-5.32-2.07-9.9-.55-6.25,2.06-9,6.15-7.62,14.27,1.55,9.29,6.59,28.35,8.59,34.95,1.69,5.55,2,11.06,12.57,10.74,8.12-.24,20.94-1.41,25.52-1.78,5.75-.47,8-2.42,8-2.42l-1.56-16.17s-1.41-1.46-7.82-.68c-5.35.65-19.31,1.24-19.31,1.24L109,261.73Z" style="fill:#fff;opacity:0.30000000000000004"></path><path d="M111.05,234.42c.78,2.67,3.63,5.84,7.42,7.38a9.35,9.35,0,0,0,6.68.35l.09-1.6s5.8,1.29,8,.37a8.82,8.82,0,0,0,4.1-4.22s1.31-.21,3.77,3.25c3.17,4.44,9.48,22.46,10.47,26.38l4,3.82c-7.69,0-11.72,5.74-14.87,9.91-2.87-1.69-10.22-.41-10.22-.41s-11.51,4-20.2,12.88-10.2,33.87-10.2,33.87-18.31-2.72-20.22-25.87-.47-46.44,8.55-58.38C93.72,235.22,104.19,233.82,111.05,234.42Z" style="fill:#455a64"></path><path d="M79.65,296.81c.09,1.24.18,2.48.28,3.72,1.91,23.15,20.22,25.87,20.22,25.87A112.66,112.66,0,0,1,102,312.79Z" style="fill:#37474f"></path><path d="M130.55,279.65c-7.73-1.19-16.23-1.16-19.74.09s-7.91,7.47-7.91,7.47,2.46-7.85,7.91-9.68S130.55,279.65,130.55,279.65Z" style="fill:#37474f"></path><path d="M115.44,277.05s0-8.41-4.21-12.9c0,0,2.91,8.35,1.83,14.11Z" style="fill:#37474f"></path><path d="M110.14,242.61c1.46,3.19,8.15,7.42,14,5.71s6.4-5.13,6.4-5.13a6.89,6.89,0,0,1-5.87,7.18C118.34,251.54,112.71,248.88,110.14,242.61Z" style="fill:#37474f"></path><path d="M131.27,246.24a6.63,6.63,0,0,1-4.44,9.38s3.36-.09,5-2.24a5.25,5.25,0,0,1-1.84,5.3,4.73,4.73,0,0,0,3.61-3.86c.75-3.42-.81-3.69-.81-3.69S134.83,248.67,131.27,246.24Z" style="fill:#37474f"></path><path d="M140.24,260.8a95.6,95.6,0,0,1,.58,19.25l3-3.85S143.51,267.43,140.24,260.8Z" style="fill:#37474f"></path><path d="M107.24,203.15c3.63,2.91,1.76,6.57-1.31,10.41s-6.19,6.42-9.82,3.51a8.93,8.93,0,0,1,11.13-13.92Z" style="fill:#e0e0e0"></path><path d="M109,205.49c-2.51.81-4.71,2.21-5.56,6.36-2.75,1.25-3.83,4.28-4.1,6.47,2.32-.06,4.46-2.1,6.59-4.76C108.22,210.69,109.85,207.92,109,205.49Z" style="opacity:0.2"></path><path d="M140.47,214.16a5.74,5.74,0,0,0,1.1-6.21c-2.42-5.71-11-6.63-16.31-6.54a32.6,32.6,0,0,0-13.1,3c-3.52,1.64-7.19,4.29-6.86,8.71-3.75.94-5.25,4.53-5.88,8.35s.86,10,3.15,13.26,5.86,4.11,8.5,2.72c.47-.25,7.91,1.37,10.2.24,2.52-1.24,5.09-2.3,7.22-4.12l7.06-6c2.14-1.82,4.91-4,5.85-6.78a7.1,7.1,0,0,0,.28-3.42c-.07-.34-1.26-3.14-1.83-2.78A4.11,4.11,0,0,0,140.47,214.16Z" style="fill:#e0e0e0"></path><path d="M110.61,234.92a4.73,4.73,0,0,1-5-1.25c-2.38-2.48-3.18-5.58-1.13-7.6a4.51,4.51,0,0,1,7.15,1.55s2.43,3.56,3.32-4.43c.35-3.16,2.41-7.32,6.26-8.22,7.27-1.71,9.38,5.64,14.08-.52,1.5,1.68,3.63,3.27,3.16,15.41-.4,10.29-4.4,12.84-6.09,13.54s-4.83,1.7-10.41.24a25.24,25.24,0,0,1-9.94-4.81C110.55,237.66,110.61,234.92,110.61,234.92Z" style="fill:#ffa8a7"></path><path d="M126,233.78s-.06,0-.07,0a.13.13,0,0,0,0,.12,1.85,1.85,0,0,1,.25.75.77.77,0,0,1-.26.58c-.08.07,0,.25,0,.32l0,0,.08,0a.47.47,0,0,0,.2-.06l0,0,.06-.1a1.43,1.43,0,0,0,.08-.22,1.34,1.34,0,0,0,0-.49A1.79,1.79,0,0,0,126,233.78Z" style="fill:#f28f8f"></path><path d="M128.1,234.36a1.15,1.15,0,0,0-.31-.52c-.06-.05-.1.09-.09.13a1.83,1.83,0,0,1,.13.56,1.61,1.61,0,0,1-.08.38,2.31,2.31,0,0,1-.18.35,1.63,1.63,0,0,1-.11.17.38.38,0,0,0,0,.46.13.13,0,0,0,.07.06h.22l.06,0,.11-.12c.06-.08.1-.16.15-.24a1.67,1.67,0,0,0,.12-.58A2,2,0,0,0,128.1,234.36Z" style="fill:#f28f8f"></path><path d="M129.67,235.07a1.2,1.2,0,0,0-.1-.37c0-.08-.09-.16-.14-.24a.07.07,0,0,0-.11,0,.15.15,0,0,0,0,.17.84.84,0,0,1,.05.47,1.71,1.71,0,0,1-.13.38,1.27,1.27,0,0,1-.23.34,1,1,0,0,1-.28.21c-.2.11-.06.48.15.48a.6.6,0,0,0,.49-.29,2.31,2.31,0,0,0,.28-.54A1.39,1.39,0,0,0,129.67,235.07Z" style="fill:#f28f8f"></path><path d="M126.41,236.17a.22.22,0,0,0-.19-.17c-.08,0-.14.08-.14.16s0,.11,0,.16h0s0,0,0,.06a1.48,1.48,0,0,1,0,.21,1.3,1.3,0,0,1-.15.43,1.43,1.43,0,0,1-.3.35,1.18,1.18,0,0,1-.18.13l-.19.14-.13.1s0,.09,0,.09a1.24,1.24,0,0,0,.27,0l.27-.11a1.31,1.31,0,0,0,.73-1.53Z" style="fill:#f28f8f"></path><path d="M127.53,236.82a.26.26,0,0,0-.22-.14.15.15,0,0,0-.11.18s0,.1,0,.16,0,0,0,0,0,0,0,.06a.76.76,0,0,1,0,.21,1.32,1.32,0,0,1-.08.44,1.58,1.58,0,0,1-.24.39l-.16.17s-.11.1-.16.16l-.12.12s0,.1,0,.09a1.11,1.11,0,0,0,.26-.07l.25-.16a1.24,1.24,0,0,0,.41-.44A1.33,1.33,0,0,0,127.53,236.82Z" style="fill:#f28f8f"></path><path d="M128.71,236.48a.23.23,0,0,0-.25,0,.16.16,0,0,0,0,.21,1.13,1.13,0,0,1,.1.13s0,0,0,0l0,.05a.78.78,0,0,1,.11.18.92.92,0,0,1,.11.43,1.35,1.35,0,0,1-.05.45.81.81,0,0,1-.07.22,1.43,1.43,0,0,0-.08.22s0,.11,0,.16,0,.09,0,.07a1.12,1.12,0,0,0,.2-.17l.17-.25a1.31,1.31,0,0,0,.18-.58A1.29,1.29,0,0,0,128.71,236.48Z" style="fill:#f28f8f"></path><path d="M121.92,226.59a1.41,1.41,0,0,0-1-.11,3.69,3.69,0,0,0-.45.11,1.39,1.39,0,0,0-.28.12l-.06,0-.08.06a.39.39,0,0,0-.07.23c0,.17.17.41.34.38,0,0,.3-.06.17,0l.14,0,.11,0,.16-.05.34-.1h0l.17,0,.15,0,.13,0,.22,0a.2.2,0,0,0,.23-.16A.38.38,0,0,0,121.92,226.59Z" style="fill:#f28f8f"></path><path d="M122,227.7a1.09,1.09,0,0,0-.34.13.71.71,0,0,1-.14.1h0l-.07,0-.15.08a3,3,0,0,0-.7.32c-.09.07,0,.23,0,.3a.39.39,0,0,0,.31.2,1.28,1.28,0,0,0,.51-.09l.31-.13a1.68,1.68,0,0,0,.34-.2.44.44,0,0,0,.11-.09l.1-.1a.4.4,0,0,0,0-.32A.31.31,0,0,0,122,227.7Z" style="fill:#f28f8f"></path><path d="M138,225.46a.28.28,0,0,0-.41-.12l-.26.09-.49.14-.1,0s0,.14,0,.21c.14.22.4.2.62.19a1.44,1.44,0,0,0,.62-.13.22.22,0,0,0,.08-.18A.36.36,0,0,0,138,225.46Z" style="fill:#f28f8f"></path><path d="M138.08,227.23s0,0,0,0,0,0,0,0l0-.06,0,0,0,0a.27.27,0,0,0-.12-.09l0,0-.2-.13a3.1,3.1,0,0,0-.58-.28c-.15,0-.35.08-.32.24a.49.49,0,0,0,.14.21,2.45,2.45,0,0,0,.37.26l.07.05a3.91,3.91,0,0,0,.44.26.24.24,0,0,0,.37-.15A.37.37,0,0,0,138.08,227.23Z" style="fill:#f28f8f"></path><path d="M124.88,235.11s0,0,0,0h0Z" style="fill:#f28f8f"></path><path d="M124.24,233.85c0-.11,0-.28-.15-.31h0a.43.43,0,0,0-.16,0,.49.49,0,0,0-.17.06,1.71,1.71,0,0,0-.23.13l-.08.1a1.4,1.4,0,0,0-.16.26,1.05,1.05,0,0,0,0,.19.13.13,0,0,1,0,.06.38.38,0,0,0,0,.1.27.27,0,0,0,0,.14.35.35,0,0,0,0,.11.5.5,0,0,0,.21.22l.06,0a.13.13,0,0,0,.16-.08c.09-.07.1-.08.11-.11l0,0a.29.29,0,0,0,.1-.18v0h0v0l0-.1,0,.08a.94.94,0,0,1,.1-.23l.09-.12,0,.07.07-.09.08-.09A.43.43,0,0,0,124.24,233.85Z" style="fill:#f28f8f"></path><path d="M124.88,235.14h0v0S124.87,235.15,124.88,235.14Z" style="fill:#f28f8f"></path><path d="M126.15,226.77c.06.74-.5.87-1.21.93s-1.31,0-1.37-.72a1.3,1.3,0,1,1,2.58-.21Z" style="fill:#263238"></path><path d="M125.7,235l3.74,1.05a1.91,1.91,0,0,1-2.36,1.41A2,2,0,0,1,125.7,235Z" style="fill:#9e6767"></path><path d="M126.5,235.93a1.57,1.57,0,0,0-.78.18,2,2,0,0,0,1.36,1.39,1.93,1.93,0,0,0,.86,0v0A1.51,1.51,0,0,0,126.5,235.93Z" style="fill:#f28f8f"></path><path d="M136.69,223l-3.17-.34a1.53,1.53,0,0,1,1.7-1.43A1.67,1.67,0,0,1,136.69,223Z" style="fill:#455a64"></path><path d="M125.81,223.27l-3,1a1.53,1.53,0,0,1,1-2A1.69,1.69,0,0,1,125.81,223.27Z" style="fill:#455a64"></path><path d="M136,226.12c.06.69-.46.86-1.12.91s-1.23,0-1.29-.72a1.21,1.21,0,1,1,2.41-.19Z" style="fill:#263238"></path><g style="opacity:0.5;mix-blend-mode:multiply"><path d="M129.59,224.65l.83,8.79,5.87-1.61A17,17,0,0,0,129.59,224.65Z" style="fill:#ffa8a7"></path></g><path d="M158,287.26V391.12a1.23,1.23,0,0,0,.72,1,3.88,3.88,0,0,0,3.48,0,1.24,1.24,0,0,0,.73-1V287.26Z" style="fill:#1F94DB"></path><path d="M158,391.12a1.23,1.23,0,0,0,.72,1,3.88,3.88,0,0,0,3.48,0,1.24,1.24,0,0,0,.73-1V387.3a1.24,1.24,0,0,1-.73,1,3.81,3.81,0,0,1-3.48,0,1.23,1.23,0,0,1-.72-1Z" style="fill:#37474f"></path><path d="M143.66,279.91c-.88,0-1.95.08-2.84.14a3.5,3.5,0,0,0-2.91,1.95,13.81,13.81,0,0,0-1.33,5.9c-.05,5,2.77,7.22,3.89,7.9s2.86.39,4.85.24,5.93-2,5.88-5.31S153.31,279.65,143.66,279.91Z" style="fill:#1F94DB"></path><path d="M143.66,279.91c-.88,0-1.95.08-2.84.14a3.5,3.5,0,0,0-2.91,1.95,13.81,13.81,0,0,0-1.33,5.9c-.05,5,2.77,7.22,3.89,7.9s2.86.39,4.85.24,5.93-2,5.88-5.31S153.31,279.65,143.66,279.91Z" style="fill:#fff;opacity:0.2"></path><path d="M141.8,292c.44,1,2.81,3.31,5.58,2.34,2.35-.82,2.84-2.4,2.87-3.24Z" style="opacity:0.2"></path><path d="M168.66,284c.83-2.85.34-4.79-1.11-7.43s-.84-3-2.36-3.26l-1.53-.28a18.09,18.09,0,0,0-4.23-2.36,2.66,2.66,0,0,0-3,.84,20.87,20.87,0,0,0-2.56-.49,2.61,2.61,0,0,0-3,1.53,17.64,17.64,0,0,0-2.84,1.11c-1.18.62-1.18,1.87-1.46,3s-1.32,2.5-.83,3.19a1.4,1.4,0,0,0,1.32.56l-3.54,1a9.48,9.48,0,0,0-2.51,5.41,8.92,8.92,0,0,0,.77,5.2l5.62-.33s3.47,1.39,6-.76c0,0-.42,1.32.76,1.59a2.49,2.49,0,0,0,2.15-.76A3.16,3.16,0,0,0,159,292c1.32-.56,1.74-.63,1.94-1.18,0,0,2.15.21,2.64-.42l1.25.07a4,4,0,0,0,2.91.28c1.6-.49,1.95-1.74.91-2.64l-1-.9s.49-.86.84-1.56S169,284.6,168.66,284Z" style="fill:#ffa8a7"></path><path d="M167.75,290.75c1.6-.49,1.95-1.74.91-2.64l-1-.9a13.27,13.27,0,0,1-1.78,2.54,3.62,3.62,0,0,1-1,.72A4,4,0,0,0,167.75,290.75Z" style="fill:#f28f8f"></path><path d="M168.66,284c-.76-1.21-1.5-2.43-2.23-3.64a12.93,12.93,0,0,0-1.1-1.79,2.64,2.64,0,0,0-.88-.48l-1-.44h.09a4.93,4.93,0,0,1-1.67,0l.18-.1a6.37,6.37,0,0,1-1.37,2,2.57,2.57,0,0,1-1.08.64,4.73,4.73,0,0,1-2.44,0,1.85,1.85,0,0,1-1.1-.66,1.65,1.65,0,0,1-.17-.65,1.17,1.17,0,0,1,.15-.66,11.44,11.44,0,0,1,.75-.94,13.11,13.11,0,0,0,1.11-2.06,7.08,7.08,0,0,1,1.2-2.07,2.2,2.2,0,0,1,2.22-.72,16.55,16.55,0,0,1,2.31.56,20.6,20.6,0,0,0-2.32-.44,2.14,2.14,0,0,0-2.06.74,7.22,7.22,0,0,0-1.08,2.06,13.78,13.78,0,0,1-1.12,2.11c-.25.35-.55.61-.72.92a.8.8,0,0,0-.11.48,1.35,1.35,0,0,0,.13.49,1.48,1.48,0,0,0,.9.5,3.89,3.89,0,0,0,1.13.13,4.58,4.58,0,0,0,1.12-.15,2.35,2.35,0,0,0,.95-.55,6,6,0,0,0,1.3-1.88l.05-.12.13,0a4.8,4.8,0,0,0,1.56,0h0l0,0,1,.44.49.22a1.51,1.51,0,0,1,.47.36,12.62,12.62,0,0,1,1.07,1.87C167.3,281.52,168,282.76,168.66,284Z" style="fill:#f28f8f"></path><path d="M164.74,276.58a2.15,2.15,0,0,1-1.14,1.12l-.11-.35A2,2,0,0,0,164.74,276.58Z" style="fill:#f28f8f"></path><path d="M162.1,276.58a2.74,2.74,0,0,1,.07.5,1.77,1.77,0,0,1-.08.52l-.32-.15a1.31,1.31,0,0,0,.22-.4A1.79,1.79,0,0,0,162.1,276.58Z" style="fill:#f28f8f"></path><path d="M156.44,271.53c-.74.82-1.68,1.5-2.44,2.24-.57.87-.92,2-1.57,2.92a2.58,2.58,0,0,0-.55,1.43c0,.48.57.74,1.08.83a4.89,4.89,0,0,0,1.62,0,5.16,5.16,0,0,0,1.58-.48,4.94,4.94,0,0,1-3.24.75,1.4,1.4,0,0,1-1.36-1.08,2.83,2.83,0,0,1,.57-1.65,11.32,11.32,0,0,0,.83-1.43,8.4,8.4,0,0,1,.83-1.48C154.67,272.83,155.59,272.25,156.44,271.53Z" style="fill:#f28f8f"></path><path d="M150.89,272.57a21.13,21.13,0,0,0-.82,2.31,12.74,12.74,0,0,1-.88,2.32,2.27,2.27,0,0,0-.32,1.08c0,.33.4.48.77.59a4,4,0,0,0,2.37-.17,3.47,3.47,0,0,1-2.43.43,1.63,1.63,0,0,1-.62-.21.78.78,0,0,1-.41-.6,2.55,2.55,0,0,1,.31-1.28,14.92,14.92,0,0,0,1-2.25A10.32,10.32,0,0,1,150.89,272.57Z" style="fill:#f28f8f"></path><path d="M148.83,278.6a8.59,8.59,0,0,0-1.64,1.88,16.83,16.83,0,0,0-.87,2.32,5.77,5.77,0,0,1-.23.61l-.3.56a7.07,7.07,0,0,0-.48,1.14,6.15,6.15,0,0,0-.21,2.46,5,5,0,0,1,0-2.54,5.1,5.1,0,0,1,.45-1.2l.28-.56c.07-.16.13-.39.2-.58a13,13,0,0,1,1-2.36A6.69,6.69,0,0,1,148.83,278.6Z" style="fill:#f28f8f"></path><path d="M164.47,279.65a2.22,2.22,0,0,0,.36,1.39c.26.43.49.87.72,1.31s.44.89.64,1.35a7.49,7.49,0,0,1,.28.71,1.81,1.81,0,0,1,.1.8,3.84,3.84,0,0,1-.54,1.44c-.23.45-.47.88-.73,1.31a17.23,17.23,0,0,1-1.71,2.44c.55-.82,1-1.71,1.47-2.58.22-.44.47-.87.68-1.31a3.8,3.8,0,0,0,.47-1.33,2.7,2.7,0,0,0-.32-1.35c-.18-.46-.39-.91-.58-1.36s-.41-.91-.63-1.34A2.19,2.19,0,0,1,164.47,279.65Z" style="fill:#f28f8f"></path><path d="M161.08,280a4.65,4.65,0,0,0,.56,1.32l.71,1.26a10,10,0,0,1,.61,1.33,2.67,2.67,0,0,1,.18,1.52c-.35.94-.68,1.81-1,2.71s-.73,1.78-1.14,2.66c.27-.93.58-1.85.89-2.76l1-2.72a2.39,2.39,0,0,0-.15-1.3,13.64,13.64,0,0,0-.55-1.32A9.29,9.29,0,0,1,161.08,280Z" style="fill:#f28f8f"></path><path d="M155.64,280.62a13,13,0,0,0,1.89,2.5,2.56,2.56,0,0,1,1,1.3,6.42,6.42,0,0,1,.16,1.61c0,.52.07,1.05.07,1.59a2.62,2.62,0,0,1-.44,1.58,21.63,21.63,0,0,1-1.94,2.52c.58-.89,1.18-1.76,1.7-2.66s.29-2,.26-3a6.41,6.41,0,0,0-.13-1.54,2.43,2.43,0,0,0-.86-1.2A9.63,9.63,0,0,1,155.64,280.62Z" style="fill:#f28f8f"></path><path d="M151.62,283.38a3.69,3.69,0,0,0,.77,1.45,3.59,3.59,0,0,0,1.25,1l.1.05V286a4.64,4.64,0,0,0,.64,2.46l.05.07,0,.07c-.3.77-.59,1.55-.94,2.31.18-.81.42-1.61.65-2.41l0,.14a4.38,4.38,0,0,1-.72-2.65l.1.16a3.12,3.12,0,0,1-1.3-1.16A3,3,0,0,1,151.62,283.38Z" style="fill:#f28f8f"></path><path d="M152.2,284.76a26.37,26.37,0,0,0-3.37,1.76,4.66,4.66,0,0,0-1.75,2.93c-.13,1.17,1.18,1.41,1.92,1.26.45-.1,1.49-1.11,2.22-1.36a18.88,18.88,0,0,1,2.89-.41l.15-.41a4.39,4.39,0,0,1-.68-2.55A3.46,3.46,0,0,1,152.2,284.76Z" style="fill:#37474f"></path></g></g><path d="M38.26,345.44,55.17,297h6.18L51,321.4a7,7,0,0,0,3.37,7.24L103,356.71a3.81,3.81,0,0,0,5.65-3.92l3.73,22a13.42,13.42,0,0,0-6.42-9.27l-54-31.2a5.53,5.53,0,0,0-6.83,1.07l-4.61,10.87a1.16,1.16,0,0,1-.49.56A1.19,1.19,0,0,1,38.26,345.44Z" style="fill:#37474f"></path><path d="M57.87,283.51l47.62,37.8a15.7,15.7,0,0,1,5.88,11L117,390.79a.94.94,0,0,1-.47.91h0a1,1,0,0,1-1.43-.67l-9.33-55a15.66,15.66,0,0,0-7.09-10.67L58.08,299.67a13.14,13.14,0,0,1-1.15-21.39Z" style="fill:#455a64"></path></g></g></svg>